<svg id="Calque_1" data-name="Calque 1" xmlns="http://www.w3.org/2000/svg" viewBox="0 0 152.25 278.37"><defs><style>.cls-1{fill:#fff;}.cls-2,.cls-3,.cls-4{fill:none;stroke-miterlimit:10;}.cls-2{stroke:#fdfdfd;stroke-width:16px;}.cls-3,.cls-4{stroke:#fff;}.cls-3{stroke-width:14px;}.cls-4{stroke-width:12px;}</style></defs><title>Plan de travail 1 copie 2</title><path class="cls-1" d="M125.34,173.21a11.44,11.44,0,0,0-14.13-7.85l-73.69,21a11.43,11.43,0,0,0,6.28,22l73.69-21a11.43,11.43,0,0,0,7.85-14.13ZM139.41,133v72.92S13.76,239.85,13.76,240.77V167.84C13.76,166.93,139.41,133,139.41,133Z"/><path class="cls-1" d="M118.77,14.17V37.49a5.61,5.61,0,0,1-5.61,5.61H40.47a5.62,5.62,0,0,1-5.62-5.61V14.17a5.62,5.62,0,0,1,5.62-5.61h72.69A5.61,5.61,0,0,1,118.77,14.17Z"/><path class="cls-2" d="M44.79,48.46V89.65L19.3,116.46a20.12,20.12,0,0,0-5.54,13.87V253.75a11.92,11.92,0,0,0,11.92,11.93H127.49a11.93,11.93,0,0,0,11.92-11.93V130.25A20.11,20.11,0,0,0,134,116.48L108.84,89.65V48.46"/><path class="cls-3" d="M113.16,43.1H40.47a5.62,5.62,0,0,1-5.62-5.61V14.17a5.62,5.62,0,0,1,5.62-5.61h72.69a5.61,5.61,0,0,1,5.61,5.61V37.49A5.61,5.61,0,0,1,113.16,43.1Z"/><path class="cls-4" d="M13.76,167.84c0-.91,125.65-34.85,125.65-34.85"/><path class="cls-4" d="M13.76,240.77c0-.92,125.65-34.86,125.65-34.86"/></svg>