<?xml version="1.0" encoding="utf-8"?>
<!-- Generator: Adobe Illustrator 26.0.3, SVG Export Plug-In . SVG Version: 6.00 Build 0)  -->
<svg version="1.1" id="Calque_1" xmlns="http://www.w3.org/2000/svg" xmlns:xlink="http://www.w3.org/1999/xlink" x="0px" y="0px"
	 viewBox="0 0 152.2 278.4" style="enable-background:new 0 0 152.2 278.4;" xml:space="preserve">
<style type="text/css">
	.st0{fill:#1D1D1B;}
	.st1{fill:none;stroke:#1D1D1B;stroke-width:16;stroke-miterlimit:10;}
	.st2{fill:none;stroke:#1D1D1B;stroke-width:14;stroke-miterlimit:10;}
	.st3{fill:none;stroke:#1D1D1B;stroke-width:12;stroke-miterlimit:10;}
</style>
<path class="st0" d="M125.3,173.2c-1.7-6.1-8.1-9.6-14.1-7.9l-73.7,21c-6.1,1.7-9.6,8.1-7.9,14.1c1.7,6.1,8.1,9.6,14.1,7.9l0,0
	l73.7-21C123.6,185.6,127.1,179.3,125.3,173.2L125.3,173.2z M139.4,133v72.9c0,0-125.7,33.9-125.7,34.9v-72.9
	C13.8,166.9,139.4,133,139.4,133z"/>
<path class="st0" d="M118.8,14.2v23.3c0,3.1-2.5,5.6-5.6,5.6l0,0H40.5c-3.1,0-5.6-2.5-5.6-5.6V14.2c0-3.1,2.5-5.6,5.6-5.6h72.7
	C116.3,8.6,118.8,11.1,118.8,14.2z"/>
<path class="st1" d="M44.8,48.5v41.2l-25.5,26.8c-3.6,3.7-5.5,8.7-5.5,13.9v123.4c0,6.6,5.3,11.9,11.9,11.9c0,0,0,0,0,0h101.8
	c6.6,0,11.9-5.3,11.9-11.9V130.2c0-5.1-1.9-10-5.4-13.8l-25.2-26.8V48.5"/>
<path class="st2" d="M113.2,43.1H40.5c-3.1,0-5.6-2.5-5.6-5.6V14.2c0-3.1,2.5-5.6,5.6-5.6h72.7c3.1,0,5.6,2.5,5.6,5.6c0,0,0,0,0,0
	v23.3C118.8,40.6,116.3,43.1,113.2,43.1z"/>
<path class="st3" d="M13.8,167.8c0-0.9,125.7-34.9,125.7-34.9"/>
<path class="st3" d="M13.8,240.8c0-0.9,125.7-34.9,125.7-34.9"/>
</svg>
