<svg id="Calque_1" data-name="Calque 1" xmlns="http://www.w3.org/2000/svg" viewBox="0 0 418 228"><defs><style>.cls-1{fill:#e6e6e6;}.cls-2{fill:#f6a825;}.cls-3{fill:#3f3d56;}.cls-4{opacity:0.2;isolation:isolate;}.cls-5{fill:#f56484;}.cls-6{fill:#f6a824;}.cls-7{fill:#149660;}</style></defs><title>assiete</title><path class="cls-1" d="M478.16,452.93l-1,37.05-1.16,45.95H436.27l-1.37-53.84-.74-29.16Z" transform="translate(-88.16 -307.93)"/><path class="cls-2" d="M459.16,432.93h-6v73h6Z" transform="translate(-88.16 -307.93)"/><path class="cls-3" d="M475.16,480.77l-1.05,52.16H438.39l-1.23-61.11a24.6,24.6,0,0,1,19.25,2.62A54.44,54.44,0,0,0,475.16,480.77Z" transform="translate(-88.16 -307.93)"/><path class="cls-1" d="M447.16,486.93h-5v5h5Z" transform="translate(-88.16 -307.93)"/><path class="cls-1" d="M451.16,475.93h-6v5h6Z" transform="translate(-88.16 -307.93)"/><path class="cls-1" d="M461.62,483.4l-4.08-3-3,4.08,4.09,3Z" transform="translate(-88.16 -307.93)"/><path class="cls-1" d="M470.81,492.4l-4.08-3-3,4.08,4.08,3Z" transform="translate(-88.16 -307.93)"/><path class="cls-1" d="M455.23,497.6l-4.08-3-3,4.08,4.08,3Z" transform="translate(-88.16 -307.93)"/><path class="cls-3" d="M467.16,473.93a1,1,0,1,0-1-1A1,1,0,0,0,467.16,473.93Z" transform="translate(-88.16 -307.93)"/><path class="cls-3" d="M446.16,466.93a1,1,0,1,0-1-1A1,1,0,0,0,446.16,466.93Z" transform="translate(-88.16 -307.93)"/><path class="cls-3" d="M464.16,459.93a1,1,0,1,0-1-1A1,1,0,0,0,464.16,459.93Z" transform="translate(-88.16 -307.93)"/><path class="cls-2" d="M297.16,535.93a114,114,0,1,0-114-114A114,114,0,0,0,297.16,535.93Z" transform="translate(-88.16 -307.93)"/><path class="cls-4" d="M297.16,504.93a82.5,82.5,0,1,1,31.78-6.28A83,83,0,0,1,297.16,504.93Zm0-160.89A77.89,77.89,0,1,0,375,421.92,78,78,0,0,0,297.16,344Z" transform="translate(-88.16 -307.93)"/><path class="cls-3" d="M297.66,501.93a80.5,80.5,0,1,0-80.5-80.5A80.51,80.51,0,0,0,297.66,501.93Z" transform="translate(-88.16 -307.93)"/><path class="cls-5" d="M237.27,389.76a10.24,10.24,0,0,1-.62-7.78,10.45,10.45,0,0,1,1.94-3.48,10.19,10.19,0,0,1,6.95-3.54,10.13,10.13,0,0,1,7.4,2.42,10.14,10.14,0,0,1,2.46,3.13l22.65,44.58a10.2,10.2,0,0,1,.61,7.79,10.17,10.17,0,0,1-5.06,5.93,10.17,10.17,0,0,1-11.23-1.33,10.34,10.34,0,0,1-2.45-3.13Z" transform="translate(-88.16 -307.93)"/><path class="cls-4" d="M240.19,394.93l-1-2.19a56.73,56.73,0,0,1,18-9.81l1,2.18C250.88,386.73,244.68,389.75,240.19,394.93Z" transform="translate(-88.16 -307.93)"/><path class="cls-4" d="M245.19,403.93l-1-2a58.56,58.56,0,0,1,18-9l1,2C255.88,396.42,249.68,399.18,245.19,403.93Z" transform="translate(-88.16 -307.93)"/><path class="cls-4" d="M250.19,413.93l-1-2.19a56.73,56.73,0,0,1,18-9.81l1,2.18C260.88,405.73,254.68,408.75,250.19,413.93Z" transform="translate(-88.16 -307.93)"/><path class="cls-4" d="M255.19,422.93l-1-2a58.56,58.56,0,0,1,18-9l1,2C265.88,415.42,259.68,418.18,255.19,422.93Z" transform="translate(-88.16 -307.93)"/><path class="cls-4" d="M259.25,432.93l-1.09-2a62.88,62.88,0,0,1,18.91-9l1.09,2C270.49,425.42,264,428.18,259.25,432.93Z" transform="translate(-88.16 -307.93)"/><path class="cls-5" d="M220.27,406a10.51,10.51,0,0,1-1.08-3.89,10.52,10.52,0,0,1,2.41-7.54,10.07,10.07,0,0,1,10.88-3.13,10.18,10.18,0,0,1,5.92,5.16l22.65,45.29a10.51,10.51,0,0,1,.61,7.9,10.35,10.35,0,0,1-5.06,6,10,10,0,0,1-7.76.62,10.27,10.27,0,0,1-5.92-5.14Z" transform="translate(-88.16 -307.93)"/><path class="cls-4" d="M242.25,449.93l-1.09-2.19a60.65,60.65,0,0,1,18.91-9.81l1.09,2.18C253.49,441.73,247,444.75,242.25,449.93Z" transform="translate(-88.16 -307.93)"/><path class="cls-1" d="M351,424.58h.08a11.93,11.93,0,0,0,6.81-2.08,12.24,12.24,0,0,0,4.49-5.62,40.82,40.82,0,0,0,2.76-15c-.13-21.76-17.54-39.62-38.94-39.92a39,39,0,0,0-25.13,8.72,40.19,40.19,0,0,0-14,22.92,40.76,40.76,0,0,0,3.41,26.78,39.79,39.79,0,0,0,19.3,18.53,11.73,11.73,0,0,0,7,.84,11.92,11.92,0,0,0,6.26-3.34,39.41,39.41,0,0,1,12.82-8.75A38.85,38.85,0,0,1,351,424.58Z" transform="translate(-88.16 -307.93)"/><path class="cls-6" d="M330.66,411.93a13,13,0,1,0-13.5-13A13.27,13.27,0,0,0,330.66,411.93Z" transform="translate(-88.16 -307.93)"/><path class="cls-3" d="M301.66,397.93a1.5,1.5,0,1,0-1.5-1.5A1.5,1.5,0,0,0,301.66,397.93Z" transform="translate(-88.16 -307.93)"/><path class="cls-3" d="M310.66,381.93c.83,0,1.5-.9,1.5-2s-.67-2-1.5-2-1.5.89-1.5,2S309.83,381.93,310.66,381.93Z" transform="translate(-88.16 -307.93)"/><path class="cls-3" d="M310.66,425.93a1.5,1.5,0,1,0-1.5-1.5A1.5,1.5,0,0,0,310.66,425.93Z" transform="translate(-88.16 -307.93)"/><path class="cls-3" d="M340.66,377.93a1.5,1.5,0,1,0-1.5-1.5A1.5,1.5,0,0,0,340.66,377.93Z" transform="translate(-88.16 -307.93)"/><path class="cls-5" d="M323.16,449.93a5.52,5.52,0,1,0-6-5.5A5.77,5.77,0,0,0,323.16,449.93Z" transform="translate(-88.16 -307.93)"/><path class="cls-4" d="M328.16,444.93a3.79,3.79,0,0,1-1.32,2.82,4.87,4.87,0,0,1-6.36,0,3.75,3.75,0,0,1-1.32-2.82" transform="translate(-88.16 -307.93)"/><path class="cls-4" d="M319.16,443.93a3.76,3.76,0,0,1,1.32-2.83,4.91,4.91,0,0,1,6.36,0,3.79,3.79,0,0,1,1.32,2.83" transform="translate(-88.16 -307.93)"/><path class="cls-5" d="M323.66,441.93a.51.51,0,0,0,.5-.5.5.5,0,0,0-.5-.5.5.5,0,0,0-.5.5A.5.5,0,0,0,323.66,441.93Z" transform="translate(-88.16 -307.93)"/><path class="cls-5" d="M323.66,446.93a.51.51,0,0,0,.5-.5.5.5,0,0,0-.5-.5.5.5,0,0,0-.5.5A.5.5,0,0,0,323.66,446.93Z" transform="translate(-88.16 -307.93)"/><path class="cls-5" d="M325.66,443.93a.51.51,0,0,0,.5-.5.5.5,0,0,0-.5-.5.5.5,0,0,0-.5.5A.5.5,0,0,0,325.66,443.93Z" transform="translate(-88.16 -307.93)"/><path class="cls-5" d="M320.66,445.93a.51.51,0,0,0,.5-.5.5.5,0,0,0-.5-.5.5.5,0,0,0-.5.5A.5.5,0,0,0,320.66,445.93Z" transform="translate(-88.16 -307.93)"/><path class="cls-5" d="M335.16,434.93a6,6,0,1,0-6-6A6,6,0,0,0,335.16,434.93Z" transform="translate(-88.16 -307.93)"/><path class="cls-4" d="M339.16,428.93a4,4,0,0,1-8,0" transform="translate(-88.16 -307.93)"/><path class="cls-4" d="M331.16,427.93a4,4,0,1,1,8,0" transform="translate(-88.16 -307.93)"/><path class="cls-5" d="M332.66,426.93a.51.51,0,0,0,.5-.5.5.5,0,0,0-.5-.5.5.5,0,0,0-.5.5A.5.5,0,0,0,332.66,426.93Z" transform="translate(-88.16 -307.93)"/><path class="cls-5" d="M337.66,427.93a.51.51,0,0,0,.5-.5.5.5,0,0,0-.5-.5.5.5,0,0,0-.5.5A.5.5,0,0,0,337.66,427.93Z" transform="translate(-88.16 -307.93)"/><path class="cls-5" d="M336.66,431.93a.51.51,0,0,0,.5-.5.5.5,0,0,0-.5-.5.5.5,0,0,0-.5.5A.5.5,0,0,0,336.66,431.93Z" transform="translate(-88.16 -307.93)"/><path class="cls-5" d="M332.66,430.93c.27,0,.5-.45.5-1s-.23-1-.5-1-.5.44-.5,1S332.38,430.93,332.66,430.93Z" transform="translate(-88.16 -307.93)"/><path class="cls-2" d="M347.16,442.93a6,6,0,1,0-6-6A6,6,0,0,0,347.16,442.93Z" transform="translate(-88.16 -307.93)"/><path class="cls-4" d="M351.16,436.93a5.32,5.32,0,0,1-1.32,3.53,4.17,4.17,0,0,1-6.36,0,5.27,5.27,0,0,1-1.32-3.53" transform="translate(-88.16 -307.93)"/><path class="cls-4" d="M342.16,435.93a3.76,3.76,0,0,1,1.32-2.83,4.91,4.91,0,0,1,6.36,0,3.79,3.79,0,0,1,1.32,2.83" transform="translate(-88.16 -307.93)"/><path class="cls-2" d="M344.66,434.93a.51.51,0,0,0,.5-.5.5.5,0,0,0-.5-.5.5.5,0,0,0-.5.5A.5.5,0,0,0,344.66,434.93Z" transform="translate(-88.16 -307.93)"/><path class="cls-2" d="M346.66,434.93c.27,0,.5-.45.5-1s-.23-1-.5-1-.5.44-.5,1S346.38,434.93,346.66,434.93Z" transform="translate(-88.16 -307.93)"/><path class="cls-2" d="M346.66,438.93a.51.51,0,0,0,.5-.5.5.5,0,0,0-.5-.5.5.5,0,0,0-.5.5A.5.5,0,0,0,346.66,438.93Z" transform="translate(-88.16 -307.93)"/><path class="cls-2" d="M348.66,435.93a.51.51,0,0,0,.5-.5.5.5,0,0,0-.5-.5.5.5,0,0,0-.5.5A.5.5,0,0,0,348.66,435.93Z" transform="translate(-88.16 -307.93)"/><path class="cls-2" d="M348.66,439.93a.51.51,0,0,0,.5-.5.5.5,0,0,0-.5-.5.5.5,0,0,0-.5.5A.5.5,0,0,0,348.66,439.93Z" transform="translate(-88.16 -307.93)"/><path class="cls-2" d="M317.66,442.93a5.5,5.5,0,1,0-5.5-5.5A5.5,5.5,0,0,0,317.66,442.93Z" transform="translate(-88.16 -307.93)"/><path class="cls-4" d="M322.16,437.93a3.79,3.79,0,0,1-1.32,2.82,4.87,4.87,0,0,1-6.36,0,3.75,3.75,0,0,1-1.32-2.82" transform="translate(-88.16 -307.93)"/><path class="cls-4" d="M313.16,436.93a3.76,3.76,0,0,1,1.32-2.83,4.91,4.91,0,0,1,6.36,0,3.79,3.79,0,0,1,1.32,2.83" transform="translate(-88.16 -307.93)"/><path class="cls-2" d="M315.66,435.93a.51.51,0,0,0,.5-.5.5.5,0,0,0-.5-.5.5.5,0,0,0-.5.5A.5.5,0,0,0,315.66,435.93Z" transform="translate(-88.16 -307.93)"/><path class="cls-2" d="M317.66,434.93a.51.51,0,0,0,.5-.5.5.5,0,0,0-.5-.5.5.5,0,0,0-.5.5A.5.5,0,0,0,317.66,434.93Z" transform="translate(-88.16 -307.93)"/><path class="cls-2" d="M317.66,439.93a.51.51,0,0,0,.5-.5.5.5,0,0,0-.5-.5.5.5,0,0,0-.5.5A.5.5,0,0,0,317.66,439.93Z" transform="translate(-88.16 -307.93)"/><path class="cls-2" d="M319.66,436.93a.51.51,0,0,0,.5-.5.5.5,0,0,0-.5-.5.5.5,0,0,0-.5.5A.5.5,0,0,0,319.66,436.93Z" transform="translate(-88.16 -307.93)"/><path class="cls-2" d="M319.66,440.93a.51.51,0,0,0,.5-.5.5.5,0,0,0-.5-.5.5.5,0,0,0-.5.5A.5.5,0,0,0,319.66,440.93Z" transform="translate(-88.16 -307.93)"/><path class="cls-2" d="M314.66,438.93a.51.51,0,0,0,.5-.5.5.5,0,0,0-.5-.5.5.5,0,0,0-.5.5A.5.5,0,0,0,314.66,438.93Z" transform="translate(-88.16 -307.93)"/><path class="cls-2" d="M330.66,445.93a6,6,0,1,0-5.5-6A5.77,5.77,0,0,0,330.66,445.93Z" transform="translate(-88.16 -307.93)"/><path class="cls-4" d="M335.16,439.93a5.65,5.65,0,0,1-.34,1.91,5,5,0,0,1-1,1.62,4.37,4.37,0,0,1-1.46,1.08,4,4,0,0,1-3.44,0,4.27,4.27,0,0,1-1.46-1.08,5,5,0,0,1-1-1.62,5.42,5.42,0,0,1-.34-1.91" transform="translate(-88.16 -307.93)"/><path class="cls-4" d="M326.16,439.93a5.43,5.43,0,0,1,.34-1.92,5.13,5.13,0,0,1,1-1.62,4.41,4.41,0,0,1,1.46-1.08,4.08,4.08,0,0,1,3.44,0,4.51,4.51,0,0,1,1.46,1.08,5.13,5.13,0,0,1,1,1.62,5.67,5.67,0,0,1,.34,1.92" transform="translate(-88.16 -307.93)"/><path class="cls-2" d="M328.66,438.93a.51.51,0,0,0,.5-.5.5.5,0,0,0-.5-.5.5.5,0,0,0-.5.5A.5.5,0,0,0,328.66,438.93Z" transform="translate(-88.16 -307.93)"/><path class="cls-2" d="M330.66,437.93a.51.51,0,0,0,.5-.5.5.5,0,0,0-.5-.5.5.5,0,0,0-.5.5A.5.5,0,0,0,330.66,437.93Z" transform="translate(-88.16 -307.93)"/><path class="cls-2" d="M330.66,442.93a.51.51,0,0,0,.5-.5.5.5,0,0,0-.5-.5.5.5,0,0,0-.5.5A.5.5,0,0,0,330.66,442.93Z" transform="translate(-88.16 -307.93)"/><path class="cls-2" d="M332.66,439.93a.51.51,0,0,0,.5-.5.5.5,0,0,0-.5-.5.5.5,0,0,0-.5.5A.5.5,0,0,0,332.66,439.93Z" transform="translate(-88.16 -307.93)"/><path class="cls-2" d="M332.66,443.93a.51.51,0,0,0,.5-.5.5.5,0,0,0-.5-.5.5.5,0,0,0-.5.5A.5.5,0,0,0,332.66,443.93Z" transform="translate(-88.16 -307.93)"/><path class="cls-5" d="M340.16,451.93a6,6,0,1,0-6-6A6,6,0,0,0,340.16,451.93Z" transform="translate(-88.16 -307.93)"/><path class="cls-4" d="M344.16,446.93a3.79,3.79,0,0,1-1.32,2.82,4.87,4.87,0,0,1-6.36,0,3.75,3.75,0,0,1-1.32-2.82" transform="translate(-88.16 -307.93)"/><path class="cls-4" d="M335.16,445.93a3.76,3.76,0,0,1,1.32-2.83,4.91,4.91,0,0,1,6.36,0,3.79,3.79,0,0,1,1.32,2.83" transform="translate(-88.16 -307.93)"/><path class="cls-5" d="M337.66,444.93a.51.51,0,0,0,.5-.5.5.5,0,0,0-.5-.5.5.5,0,0,0-.5.5A.5.5,0,0,0,337.66,444.93Z" transform="translate(-88.16 -307.93)"/><path class="cls-5" d="M339.66,443.93a.51.51,0,0,0,.5-.5.5.5,0,0,0-.5-.5.5.5,0,0,0-.5.5A.5.5,0,0,0,339.66,443.93Z" transform="translate(-88.16 -307.93)"/><path class="cls-5" d="M339.66,448.93a.51.51,0,0,0,.5-.5.5.5,0,0,0-.5-.5.5.5,0,0,0-.5.5A.5.5,0,0,0,339.66,448.93Z" transform="translate(-88.16 -307.93)"/><path class="cls-5" d="M341.66,449.93a.51.51,0,0,0,.5-.5.5.5,0,0,0-.5-.5.5.5,0,0,0-.5.5A.5.5,0,0,0,341.66,449.93Z" transform="translate(-88.16 -307.93)"/><path class="cls-5" d="M337.66,447.93a.51.51,0,0,0,.5-.5.5.5,0,0,0-.5-.5.5.5,0,0,0-.5.5A.5.5,0,0,0,337.66,447.93Z" transform="translate(-88.16 -307.93)"/><path class="cls-3" d="M264.66,425.93c.83,0,1.5-.9,1.5-2s-.67-2-1.5-2-1.5.89-1.5,2S263.83,425.93,264.66,425.93Z" transform="translate(-88.16 -307.93)"/><path class="cls-6" d="M306.72,479.93,269.16,470l1.44-5.08,37.56,9.91Z" transform="translate(-88.16 -307.93)"/><path class="cls-6" d="M301.16,478.18a104.16,104.16,0,0,1-38,0v-5.25a119.9,119.9,0,0,0,38,0Z" transform="translate(-88.16 -307.93)"/><path class="cls-6" d="M305.16,462.18a109.67,109.67,0,0,1-39,0v-5.25a126.25,126.25,0,0,0,39,0Z" transform="translate(-88.16 -307.93)"/><path class="cls-6" d="M318.16,468.18a104.16,104.16,0,0,1-38,0v-5.25a119.9,119.9,0,0,0,38,0Z" transform="translate(-88.16 -307.93)"/><path class="cls-6" d="M322.16,474.93a96.3,96.3,0,0,1-39,0v-6a110.61,110.61,0,0,0,39,0Z" transform="translate(-88.16 -307.93)"/><path class="cls-6" d="M333.16,483l-38.12,6-.88-5.05,38.11-5.95Z" transform="translate(-88.16 -307.93)"/><path class="cls-6" d="M327.16,483.83a103,103,0,0,1-34.76,16.1L290.16,495a118.58,118.58,0,0,0,34.76-16.09Z" transform="translate(-88.16 -307.93)"/><path class="cls-6" d="M324.16,466.83a103,103,0,0,1-34.76,16.1L287.16,478a118.58,118.58,0,0,0,34.76-16.09Z" transform="translate(-88.16 -307.93)"/><path class="cls-6" d="M339.16,467.07a101,101,0,0,1-34.76,16.86l-2.24-5.15a116.13,116.13,0,0,0,34.76-16.85Z" transform="translate(-88.16 -307.93)"/><path class="cls-6" d="M345.16,471.83a107.07,107.07,0,0,1-35.7,16.1l-2.3-4.91a123.19,123.19,0,0,0,35.7-16.09Z" transform="translate(-88.16 -307.93)"/><path class="cls-7" d="M298.16,460.93h-1v2h1Z" transform="translate(-88.16 -307.93)"/><path class="cls-7" d="M304.16,492.93h-2v2h2Z" transform="translate(-88.16 -307.93)"/><path class="cls-7" d="M275.16,460.93h-2v2h2Z" transform="translate(-88.16 -307.93)"/><path class="cls-7" d="M317.16,483.93h-2v1h2Z" transform="translate(-88.16 -307.93)"/><path class="cls-7" d="M318.16,472.93h-2v2h2Z" transform="translate(-88.16 -307.93)"/><path class="cls-7" d="M288.11,467.91,286,466.48l-.82,1.21,2.12,1.43Z" transform="translate(-88.16 -307.93)"/><path class="cls-7" d="M309.7,471.94l-2.12-1.44-.82,1.21,2.12,1.44Z" transform="translate(-88.16 -307.93)"/><path class="cls-7" d="M283.36,478.89l-2.12-1.44-.82,1.21,2.11,1.44Z" transform="translate(-88.16 -307.93)"/><path class="cls-7" d="M296.77,478.78l1.44-2.12-1.21-.82L295.56,478Z" transform="translate(-88.16 -307.93)"/><path class="cls-7" d="M306.65,481.34l1.44-2.12-1.21-.82-1.44,2.12Z" transform="translate(-88.16 -307.93)"/><path class="cls-7" d="M333,472.56l1.44-2.12-1.21-.82-1.44,2.12Z" transform="translate(-88.16 -307.93)"/><path class="cls-3" d="M506.16,534.93h-418v1h418Z" transform="translate(-88.16 -307.93)"/></svg>