<svg id="Calque_1" data-name="Calque 1" xmlns="http://www.w3.org/2000/svg" viewBox="0 0 529.16 289.21"><defs><style>.cls-1{fill:#f6a825;}.cls-2{fill:#2e2e2e;}.cls-3{fill:#60ab43;}.cls-4{fill:#e9565c;}.cls-5{fill:#fff;}.cls-6{fill:#714b4f;}.cls-7{fill:#f3c964;}.cls-8{fill:#f2f2f2;}.cls-9{fill:#565a89;}.cls-10{fill:#f5b8b9;}.cls-11{fill:#3f3d56;}.cls-12{fill:#46455b;}.cls-13{fill:#a8a8a8;}</style></defs><title>burger_and_mec</title><path class="cls-1" d="M396,527.72q74.07-.88,148.14,1c4.25.11,8.66.24,12.41,1.37s6.64,3.54,5.61,5.86q-28.92.85-57.89.53c-4.2,2.06-8.82,5.17-6.24,7.95,1.79,1.92,6.21,2.5,10.07,2.5,7,0,14-1.14,20.91-.47s13.76,4.31,11.74,8.07c-1.53,2.86-7.35,4.28-12.64,4.53s-10.71-.27-15.88.4c-4.92.65-9.18,2.32-13.78,3.49-7.25,1.84-15.3,2.41-23.21,2.89-60.78,3.71-122.06,3.69-183.19,3.65-24.75,0-49.84,0-73.74-3.67-13.62-2.06-26.68-5.26-40.47-6.92-16.48-2-33.51-1.71-50.36-1.65q-44.39.15-88.68-1.71c-2.19-.1-4.89-.41-5.49-1.61-.69-1.39,2.12-2.47,4.5-3a260.25,260.25,0,0,1,40.91-6.11c7-.49,14.17-.74,20.59-2.36s12-5,12-9c0-1.2-.53-2.49.48-3.56,1.34-1.41,4.62-1.74,7.46-1.89,31.43-1.71,63-2.43,94.6-2.14,11.11.1,22.26.33,33.29-.42,9-.62,17.89-1.88,26.79-2.93,12-1.42,64-8.78,71.57-2.81,5.68,4.47-6.05,5.43,9.19,7.25C367.86,528.56,382.49,527.87,396,527.72Z" transform="translate(-33.16 -280.29)"/><path class="cls-2" d="M203.7,507.32s-18.31,36.26-2.73,36.26,212,.78,217.42-9.36c3.82-7.1,1.72-32.39.11-46.89a11.06,11.06,0,0,0-11.62-9.85c-42.48,2.34-201.14,11-200.45,9.95,1.36-2.14.39-1.56.39-1.56S200.58,505.76,203.7,507.32Z" transform="translate(-33.16 -280.29)"/><path d="M418.89,487.33a11.06,11.06,0,0,0-11.62-9.85c-42.48,2.34-201.14,11-200.45,9.95,1.36-2.14.39-1.56.39-1.56s-1.39,4.44-2.53,9.29c.16,0,.28.13-.25,1.06,0,.21-.09.42-.14.63,6.36.63,158.75-7.72,200.25-10a11.1,11.1,0,0,1,11.63,9.86c1.19,10.78,2.66,27.52,1.76,38.32a2.23,2.23,0,0,0,.85-.79C422.6,527.12,420.5,501.83,418.89,487.33Z" transform="translate(-33.16 -280.29)"/><path class="cls-3" d="M225.53,453c-2-.62-4.6-1.43-4.37-2.74.12-.7,1.06-1.24,1.73-1.82,1.3-1.13,1.65-2.71.25-3.8s-4.76-1.23-6-.08c-.64.59-.6,1.33-.92,2-1,2.08-5.16,3-8.67,3.81s-7.44,2.32-7.11,4.48c.36,2.35,5.78,4.44,3.6,6.44-.79.73-2.45,1.14-2.81,2-.25.59.25,1.18.74,1.72l3.45,3.8c1.37,1.51,2.78,3.16,2.32,4.84-.91,3.34-8.31,4.62-14.18,4.24-2.15-.13-4.68-.32-6.15.58a2,2,0,0,0-.76,2.71c1,2.39,4.09,4.46,8.07,5.37-4.46.88-6.22,4.6-3.13,6.65a9.12,9.12,0,0,1-5.47.15c-1.53,1.41-.63,3.34,1.3,4.57a26.12,26.12,0,0,0,7.33,2.58l-2.48,2.32c1.8,1.41,5.68.91,8.3,0s5.45-2.08,8.39-1.61c2.75.43,4.83,2.27,7.63,2a4.94,4.94,0,0,0,3.88-2.85l2.88-5.12c4.09.64,8.39-2.17,6.75-4.4,4.58.49,9.08-2.49,7.58-5a14.67,14.67,0,0,1,5,6.36,6,6,0,0,0,1.62,3,5.51,5.51,0,0,0,2.26,1,5.43,5.43,0,0,0,2.47-.13c-.84,1.62-1.51,3.51.2,4.89s6.67,1,6.45-.7a24,24,0,0,0,8.82,2.27c3.27.08,6.85-1.17,7.15-3a45.61,45.61,0,0,0,14.28,2.3c.41-1.25,3.3-1.65,5.45-1.35s4.16,1,6.38,1,4.61-1.33,3.47-2.42a46,46,0,0,0,14.23.71c4.48-.47,8.72-1.6,13.26-1.85a31.67,31.67,0,0,1,13.51,2.14c1.48.62,3.33,1.41,5,.92a6,6,0,0,0,2-1.36c2.71-2.06,8.26-1.66,12.53-.85s9.25,1.78,13,.35c1.41-.54,2.45-1.37,4-1.83,5.39-1.62,11.83,2.54,17.55,1.34,1.86-.39,3.37-1.32,5.35-1.43,3.5-.21,5.81,2.16,9.21,2.68s7.35-1.62,6.49-3.65a31.78,31.78,0,0,0,10-1.4l-1.6-2.88c4-.07,6.93-2.93,5.08-5,4-.76,7.17-2.81,8-5.18s-.73-5-3.92-6.54c-1.88-.93-4.35-1.59-5.43-2.88-.77-.92-.66-2-1-3-.66-2.21-3.52-4.17-7.21-4.93a38.6,38.6,0,0,1-4.81-1c-1.46-.51-2.5-1.62-1.67-2.47a18.13,18.13,0,0,1,1.85-1.12c2.24-1.66-1.6-3.75-4.88-4.68l7.83-.26,1.68-7.63c-3.09,2.53-11.13,2-13.14-.86,2.51.82,5.89-.23,7.12-1.74s.92-3.25.6-4.89a2.37,2.37,0,0,0-.4-1.15,2.34,2.34,0,0,0-.91-.8c-.77-.37-2-.52-2.24-1.07s.74-1.06.88-1.64c.29-1.1-2.25-1.59-4-2.13-4-1.26-6-4.81-10.61-4.69s-5.85,3.61-5.85,6.22-1.55,6.12-6.13,6.07a12.53,12.53,0,0,1-4.87-1.3l-13.1-5.66a31.93,31.93,0,0,0-5.38-1.93,42,42,0,0,0-8.41-.75l-18.32-.42a8.64,8.64,0,0,0-2.78.24,5.18,5.18,0,0,0-2,1.5c-2.55,2.4-8.55,3.34-12.88,2-1.15-.35-2.18-.84-3.4-1.1-3.83-.83-7.85.71-11.83,1.26-6.52.91-14.63-.65-19.34,2.09-1.56.91-2.4,2.16-3.85,3.14a7.17,7.17,0,0,1-5.91.9c.23,1.79.44,3.65-.77,5.31s-4.31,3-7.36,2.58c-1.62-.42-1.49-1.79-.72-2.71s1.93-1.86,1.55-2.85-2.11-1.57-3.4-2.26-2.16-2-.79-2.63c-.92-1.19-4.25-1-5.72,0s-1.61,2.4-1.77,3.71a4.12,4.12,0,0,1-2.21,3.59c-2.89,1.49-8.45.72-10.36,2.65-.61.62-.65,1.36-1,2-1.56,3-8.28,3.81-13.77,4.06a6.79,6.79,0,0,0-.08,1.91C230,455,226.89,453.39,225.53,453Z" transform="translate(-33.16 -280.29)"/><path d="M415.85,449.51c.32,1.65.63,3.4-.6,4.9a3.47,3.47,0,0,1-.62.59l5-.17,1.68-7.63a9.52,9.52,0,0,1-5.61,1.62A5.41,5.41,0,0,1,415.85,449.51Z" transform="translate(-33.16 -280.29)"/><path d="M417.29,458.5c-.19-1-1.89-2.08-3.8-2.83a7.69,7.69,0,0,1-5.36.48C409.52,458.12,413.77,459,417.29,458.5Z" transform="translate(-33.16 -280.29)"/><path d="M419.72,464.06c0,.19-.08.39-.13.58l-7.83.26c3.28.93,7.12,3,4.88,4.68a18.13,18.13,0,0,0-1.85,1.12c-.83.85.21,2,1.67,2.47a38.6,38.6,0,0,0,4.81,1c3.69.76,6.55,2.71,7.21,4.93.3,1,.19,2.09,1,3,1.08,1.29,3.55,1.94,5.43,2.88.18.09.36.18.53.28a7.18,7.18,0,0,0,3.39-3.55c.82-2.37-.73-5-3.92-6.54-1.88-.93-4.35-1.59-5.43-2.88-.77-.92-.66-2-1-3-.66-2.21-3.52-4.17-7.21-4.93C420.76,464.22,420.24,464.14,419.72,464.06Z" transform="translate(-33.16 -280.29)"/><path d="M190.33,499.19a6,6,0,0,1,4.4-2.89,15,15,0,0,1-5.9-2.67,8.52,8.52,0,0,1-2.7-.34c-1.53,1.41-.63,3.34,1.3,4.57A14.09,14.09,0,0,0,190.33,499.19Z" transform="translate(-33.16 -280.29)"/><path d="M204.14,461.17a25.8,25.8,0,0,1,3.42-1c3.51-.81,7.64-1.73,8.67-3.81.32-.67.28-1.41.92-2,1.23-1.15,4.6-1,6,.09s1.05,2.67-.25,3.8c-.67.58-1.61,1.12-1.73,1.82-.23,1.31,2.34,2.12,4.37,2.74a8.79,8.79,0,0,1,2.64,1.39c0-.14,0-.27.05-.41,5.49-.25,12.21-1,13.77-4.06.35-.67.39-1.42,1-2,1.91-1.93,7.47-1.16,10.36-2.65a4.13,4.13,0,0,0,2.21-3.6c.16-1.3.31-2.71,1.77-3.71s4.8-1.14,5.72.05c-1.37.64-.51,1.94.79,2.63s3,1.27,3.4,2.25-.79,1.94-1.55,2.86-.9,2.28.72,2.71c3,.42,6.15-.93,7.36-2.58s1-3.53.77-5.31a7.17,7.17,0,0,0,5.91-.9c1.45-1,2.29-2.23,3.85-3.14,4.71-2.75,12.82-1.18,19.34-2.09,4-.55,8-2.09,11.83-1.26,1.22.26,2.25.75,3.4,1.1,4.33,1.32,10.33.38,12.88-2a5.09,5.09,0,0,1,2-1.5,8.64,8.64,0,0,1,2.78-.24l18.32.42a41.32,41.32,0,0,1,8.41.75,31.93,31.93,0,0,1,5.38,1.93l13.1,5.66a12.71,12.71,0,0,0,4.87,1.3c4.58.05,6.12-3.45,6.13-6.07s1.28-6.11,5.85-6.22,6.56,3.43,10.61,4.69c1.72.54,4.26,1,4,2.13-.13.51-.93,1-.92,1.46a6.07,6.07,0,0,0,3-1.72c1.23-1.5.92-3.25.6-4.89a2.37,2.37,0,0,0-.4-1.15,2.34,2.34,0,0,0-.91-.8c-.77-.37-2-.52-2.24-1.07s.74-1.06.88-1.64c.29-1.1-2.25-1.59-4-2.13-4-1.26-6-4.81-10.61-4.69s-5.85,3.61-5.85,6.22-1.55,6.12-6.13,6.07a12.53,12.53,0,0,1-4.87-1.3l-13.1-5.66a31.93,31.93,0,0,0-5.38-1.93,42,42,0,0,0-8.41-.75l-18.32-.42a8.64,8.64,0,0,0-2.78.24,5.18,5.18,0,0,0-2,1.5c-2.55,2.4-8.55,3.34-12.88,2-1.15-.35-2.18-.84-3.4-1.1-3.83-.83-7.85.71-11.83,1.26-6.52.91-14.63-.65-19.34,2.09-1.56.91-2.4,2.16-3.85,3.14a7.17,7.17,0,0,1-5.91.9c.23,1.79.44,3.65-.77,5.31s-4.31,3-7.36,2.58c-1.62-.42-1.49-1.79-.72-2.71s1.93-1.86,1.55-2.85-2.11-1.57-3.4-2.26-2.16-2-.79-2.63c-.92-1.19-4.25-1-5.72,0s-1.61,2.4-1.77,3.71a4.12,4.12,0,0,1-2.21,3.59c-2.89,1.49-8.45.72-10.36,2.65-.61.62-.65,1.36-1,2-1.56,3-8.28,3.81-13.77,4.06,0,.14,0,.28-.05.41a8.79,8.79,0,0,0-2.64-1.39c-2-.62-4.6-1.43-4.37-2.74.12-.7,1.06-1.24,1.73-1.82,1.3-1.13,1.65-2.71.25-3.8s-4.76-1.23-6-.08c-.64.59-.6,1.33-.92,2-1,2.08-5.16,3-8.67,3.81s-7.44,2.32-7.11,4.48C200.81,457.13,206.05,459.19,204.14,461.17Z" transform="translate(-33.16 -280.29)"/><path d="M194.73,486.49a7.82,7.82,0,0,0-2.71,1.06l1.55.09c5.87.38,13.27-.9,14.18-4.24.46-1.68-.95-3.33-2.32-4.84l-1.66-1.83a28.25,28.25,0,0,1-10.2,1.1c-2.15-.13-4.68-.32-6.15.58a2,2,0,0,0-.76,2.71C187.63,483.51,190.75,485.58,194.73,486.49Z" transform="translate(-33.16 -280.29)"/><path class="cls-4" d="M314.26,471.22c32.28,0,58.45-17.28,58.45-38.6S346.54,394,314.26,394s-58.44,17.29-58.44,38.61S282,471.22,314.26,471.22Z" transform="translate(-33.16 -280.29)"/><path class="cls-5" d="M294.39,429.89s-26.49,2.73-18.7-8.58,17.53-15.21,22.21-12.09,6.62,11.7,5.84,11.7-12.08-6.63-16-1.56S294.39,429.89,294.39,429.89Z" transform="translate(-33.16 -280.29)"/><path class="cls-5" d="M317.35,431s21.88,15.2,8.6,18.7-23.2.1-24.71-5.31,2.58-13.19,3.18-12.69,4.85,12.91,11.1,11.6S317.35,431,317.35,431Z" transform="translate(-33.16 -280.29)"/><path class="cls-5" d="M322.46,421.47s1.72-26.6,11.57-17,12.06,19.84,8.2,23.93-12.63,4.59-12.5,3.82,8.55-10.81,4.2-15.5S322.46,421.47,322.46,421.47Z" transform="translate(-33.16 -280.29)"/><path class="cls-4" d="M243.74,468.1c32.28,0,58.44-17.28,58.44-38.6S276,390.9,243.74,390.9s-58.45,17.28-58.45,38.6S211.46,468.1,243.74,468.1Z" transform="translate(-33.16 -280.29)"/><path class="cls-5" d="M223.87,426.77s-26.5,2.73-18.71-8.58S222.7,403,227.37,406.1s6.63,11.7,5.85,11.7-12.08-6.63-16-1.56S223.87,426.77,223.87,426.77Z" transform="translate(-33.16 -280.29)"/><path class="cls-5" d="M246.82,427.88s21.88,15.2,8.61,18.7-23.2.11-24.72-5.31,2.59-13.19,3.18-12.69,4.85,12.91,11.11,11.6S246.82,427.88,246.82,427.88Z" transform="translate(-33.16 -280.29)"/><path class="cls-5" d="M251.93,418.35s1.73-26.6,11.57-17,12.06,19.84,8.21,23.93-12.63,4.59-12.5,3.82,8.54-10.81,4.2-15.5S251.93,418.35,251.93,418.35Z" transform="translate(-33.16 -280.29)"/><path d="M274.15,396.65c12.73,7.08,20.83,17.68,20.83,29.54,0,21.32-26.17,38.6-58.45,38.6a81.79,81.79,0,0,1-30.22-5.56c10.17,5.66,23.29,9.07,37.62,9.07,32.28,0,58.45-17.28,58.45-38.61C302.38,415.68,291.07,403.41,274.15,396.65Z" transform="translate(-33.16 -280.29)"/><path d="M344.68,399.38c12.73,7.08,20.82,17.68,20.82,29.54,0,21.32-26.17,38.6-58.45,38.6A81.79,81.79,0,0,1,276.83,462c10.17,5.66,23.3,9.07,37.63,9.07,32.28,0,58.44-17.28,58.44-38.61C372.9,418.41,361.6,406.14,344.68,399.38Z" transform="translate(-33.16 -280.29)"/><path class="cls-6" d="M208.22,422.1s50.26-53.81,173.39-31.58c97.33,17.57,17.4,47.81-20.36,59.71a135.57,135.57,0,0,1-33.77,6.09C284.88,458.51,177.74,460.47,208.22,422.1Z" transform="translate(-33.16 -280.29)"/><path d="M361.25,438.14a135.57,135.57,0,0,1-33.77,6.09C293,446,216.1,447.63,204.36,427.78c-14.83,32.08,82.91,30.22,123.12,28.15a135.57,135.57,0,0,0,33.77-6.09c27.68-8.72,78-27.3,64.59-43.52C416.8,419.05,382.41,431.48,361.25,438.14Z" transform="translate(-33.16 -280.29)"/><path class="cls-7" d="M267.65,373.19s112.08-.51,113.11-1.53,24.68-1.55,29.31,5,6.16,9.64,0,10.66-209.26,105-209.26,105-11.31,1-5.66-10.15S267.65,373.19,267.65,373.19Z" transform="translate(-33.16 -280.29)"/><path class="cls-3" d="M314.7,419.59c0,4.2-20.23,14.43-45.2,14.43s-45.19-10.23-45.19-14.43,20.23-5.85,45.19-5.85S314.7,415.39,314.7,419.59Z" transform="translate(-33.16 -280.29)"/><path class="cls-3" d="M269.5,427c25,0,45.2-3.41,45.2-7.61s-20.23-7.6-45.2-7.6-45.19,3.4-45.19,7.6S244.54,427,269.5,427Z" transform="translate(-33.16 -280.29)"/><path class="cls-3" d="M369.25,412.57c0,4.2-20.23,14.43-45.2,14.43s-45.19-10.23-45.19-14.43,20.23-5.85,45.19-5.85S369.25,408.37,369.25,412.57Z" transform="translate(-33.16 -280.29)"/><path class="cls-3" d="M324.05,420c25,0,45.2-3.41,45.2-7.61s-20.23-7.6-45.2-7.6-45.19,3.4-45.19,7.6S299.09,420,324.05,420Z" transform="translate(-33.16 -280.29)"/><path class="cls-3" d="M423.8,405.55c0,4.2-20.23,14.43-45.2,14.43s-45.19-10.23-45.19-14.43,20.23-5.85,45.19-5.85S423.8,401.35,423.8,405.55Z" transform="translate(-33.16 -280.29)"/><path class="cls-3" d="M378.6,413c25,0,45.2-3.41,45.2-7.6s-20.23-7.61-45.2-7.61-45.19,3.41-45.19,7.61S353.64,413,378.6,413Z" transform="translate(-33.16 -280.29)"/><path class="cls-2" d="M212.15,407.71s-18.59-3-9.08-18.17,12.71-32.12,16.86-35.91c4.64-4.24,100.41-78.58,175,3.68A109.73,109.73,0,0,1,414,387a17.29,17.29,0,0,0,2.88,4.88c3,3,5.62,11.68,0,16S245.65,429.13,212.15,407.71Z" transform="translate(-33.16 -280.29)"/><path class="cls-8" d="M299.26,344.76a7.27,7.27,0,0,1-3.89,1.3c-2.15,0-3.89-.58-3.89-1.3s1.74-1.3,3.89-1.3A7.27,7.27,0,0,1,299.26,344.76Z" transform="translate(-33.16 -280.29)"/><path class="cls-8" d="M268.13,336.54a7.24,7.24,0,0,1-3.89,1.3c-2.15,0-3.89-.58-3.89-1.3s1.74-1.3,3.89-1.3A7.24,7.24,0,0,1,268.13,336.54Z" transform="translate(-33.16 -280.29)"/><path class="cls-8" d="M352.69,348.52a7.24,7.24,0,0,1-4.1.07c-2-.64-3.54-1.71-3.33-2.4s2.05-.72,4.1-.07A7.2,7.2,0,0,1,352.69,348.52Z" transform="translate(-33.16 -280.29)"/><path class="cls-8" d="M295.19,326.45a7.24,7.24,0,0,1-4.1.08c-2-.64-3.54-1.72-3.33-2.4s2.05-.72,4.1-.08A7.35,7.35,0,0,1,295.19,326.45Z" transform="translate(-33.16 -280.29)"/><path class="cls-8" d="M357.87,334.24a7.24,7.24,0,0,1-4.1.08c-2-.65-3.54-1.72-3.32-2.4s2.05-.72,4.1-.08A7.25,7.25,0,0,1,357.87,334.24Z" transform="translate(-33.16 -280.29)"/><path class="cls-8" d="M345.08,333.08a7.21,7.21,0,0,1-3.89,1.3c-2.15,0-3.89-.59-3.89-1.3s1.74-1.3,3.89-1.3A7.21,7.21,0,0,1,345.08,333.08Z" transform="translate(-33.16 -280.29)"/><path class="cls-8" d="M307.9,325.29a7.21,7.21,0,0,1-3.89,1.3c-2.15,0-3.89-.58-3.89-1.3s1.74-1.3,3.89-1.3A7.21,7.21,0,0,1,307.9,325.29Z" transform="translate(-33.16 -280.29)"/><path class="cls-8" d="M336.44,325.29a7.27,7.27,0,0,1-3.9,1.3c-2.14,0-3.89-.58-3.89-1.3s1.75-1.3,3.89-1.3A7.27,7.27,0,0,1,336.44,325.29Z" transform="translate(-33.16 -280.29)"/><path class="cls-8" d="M325.63,342.16a7.27,7.27,0,0,1-3.89,1.3c-2.15,0-3.89-.58-3.89-1.3s1.74-1.29,3.89-1.29A7.34,7.34,0,0,1,325.63,342.16Z" transform="translate(-33.16 -280.29)"/><path class="cls-8" d="M294.19,339.13a7.31,7.31,0,0,1,2-3.56c1.61-1.43,3.29-2.16,3.77-1.62s-.44,2.13-2,3.56A7.27,7.27,0,0,1,294.19,339.13Z" transform="translate(-33.16 -280.29)"/><path class="cls-8" d="M274.74,334.37a7.23,7.23,0,0,1,2-3.56c1.6-1.43,3.29-2.16,3.76-1.62s-.43,2.13-2,3.56A7.34,7.34,0,0,1,274.74,334.37Z" transform="translate(-33.16 -280.29)"/><path class="cls-8" d="M241,357.74a7.26,7.26,0,0,1,2-3.57c1.6-1.43,3.29-2.15,3.76-1.62s-.43,2.13-2,3.56A7.36,7.36,0,0,1,241,357.74Z" transform="translate(-33.16 -280.29)"/><path class="cls-8" d="M315.81,331.78a7.19,7.19,0,0,1,2-3.56c1.6-1.44,3.29-2.16,3.76-1.63s-.43,2.13-2,3.56A7.29,7.29,0,0,1,315.81,331.78Z" transform="translate(-33.16 -280.29)"/><path class="cls-8" d="M308,347.35a7.23,7.23,0,0,1,2-3.56c1.6-1.43,3.29-2.16,3.76-1.62s-.43,2.13-2,3.56A7.27,7.27,0,0,1,308,347.35Z" transform="translate(-33.16 -280.29)"/><path class="cls-9" d="M451.62,516.9s-5.92,1.77-8.87,5.33c0,0-5.33,2.37-8.59,1.78s-9.17,5.33-4.44,7.1,33.74,6.52,34.33,5,.6-16.59.6-16.59Z" transform="translate(-33.16 -280.29)"/><path class="cls-9" d="M498.12,514.35s-5.53,2.77-7.84,6.77c0,0-4.84,3.25-8.15,3.22S474,531.16,479,532.1s34.35.66,34.68-.9-2.25-16.45-2.25-16.45Z" transform="translate(-33.16 -280.29)"/><path class="cls-10" d="M461.24,313.57a13.33,13.33,0,1,0-13.32-13.33A13.32,13.32,0,0,0,461.24,313.57Z" transform="translate(-33.16 -280.29)"/><path class="cls-10" d="M472,302.46s1.48,10.07,4.15,11.25a20,20,0,0,1,5,3.56l-7.4,3.55-14.5-.89s1.18-6.51-.89-9.77S472,302.46,472,302.46Z" transform="translate(-33.16 -280.29)"/><path class="cls-10" d="M499.57,350.14s6.8,17.48,0,34.36-9.77,19.55-9.77,19.55l-2.07-22.21,2.38-2.17s1.44-6.74.27-10.73.61-16.43.61-16.43Z" transform="translate(-33.16 -280.29)"/><path class="cls-11" d="M448.66,388.06s-8.58,19.54-7.69,29,7.69,49.47,7.69,49.47-.88,51.53,1.78,51.53,15.39,4.74,15.39,1.48,2.66-81.45,2.66-81.45,15.1,34.36,16.58,37,10.95,44.43,14.2,44.43,13.32-3,12.43-5-10.95-48.28-16.57-60.13-4.44-56.57-4.44-56.57l-9.47-20.73Z" transform="translate(-33.16 -280.29)"/><path class="cls-11" d="M457.25,294.17s-8.29-.6-8.88-2.67-1.78-3.85-1.19-3.85.89-1.48.89-1.48.59-.3.89,0,.59-2.07.59-2.07.3-.89.59-.3.3.3.6-.59,1.77-1.48,1.77-1.48,5.62.29,6.51-.89,11-.3,13,1.18,11.25,6.81,9.77,11.26S475,307.49,475,309s-2.07,1.19-2.66-.29-5.33-3.26-5.33-4.15-2.66-9.18-4.14-8.59-3.26,5.33-3.85,4.45S457.25,294.17,457.25,294.17Z" transform="translate(-33.16 -280.29)"/><path class="cls-1" d="M498.09,334.74S486,317,482.4,316.08s-11.54-3.25-11.54-3.25-8,1.18-10.36,2.36S449.26,318.45,449,322s2.37,37.61.89,40.87-6.51,34.36-4.15,33.77.6-8.3,11-8.59,16-6.52,19.82.89,14.8,13,14.8,13a71.24,71.24,0,0,1,1.19-7.11c.88-4.15-2.37-14.22-2.37-14.22s.29-23.4,1.48-26.06S498.09,334.74,498.09,334.74Z" transform="translate(-33.16 -280.29)"/><path class="cls-1" d="M493.65,334.15l4.44.59s-.3,5.93.89,7.7,3.25,11,2.07,11.26-11.84,2.07-11.84,2.07l-.59-13.62Z" transform="translate(-33.16 -280.29)"/><path class="cls-10" d="M445.7,344.81s-2.95,19.26-4.43,21.62S432.39,402,432.39,402s-12.17,16.93-6.25,16.63,12.17-15.45,12.17-15.45,18.35-33.47,18.35-37,4.44-21.33,4.44-21.33Z" transform="translate(-33.16 -280.29)"/><path class="cls-1" d="M454.29,318.75,449,320.82s-6.81,24.29-5.33,26.36,19.24-.89,19.54-1.77S459.91,318.75,454.29,318.75Z" transform="translate(-33.16 -280.29)"/><path class="cls-12" d="M80.4,479.48c0,28.86,18.09,52.21,40.44,52.21Z" transform="translate(-33.16 -280.29)"/><path class="cls-1" d="M120.84,531.69c0-29.18,20.19-52.79,45.14-52.79Z" transform="translate(-33.16 -280.29)"/><path class="cls-1" d="M95.05,482.1c0,27.41,11.54,49.59,25.79,49.59Z" transform="translate(-33.16 -280.29)"/><path class="cls-12" d="M120.84,531.69c0-37.29,23.34-67.46,52.17-67.46Z" transform="translate(-33.16 -280.29)"/><path class="cls-13" d="M112.33,532.06s5.74-.18,7.47-1.41,8.82-2.7,9.25-.73,8.62,9.83,2.14,9.88-15-1-16.77-2.06S112.33,532.06,112.33,532.06Z" transform="translate(-33.16 -280.29)"/><path d="M131.31,539.11c-6.48.06-15-1-16.77-2.06-1.32-.8-1.84-3.67-2-5h-.2s.37,4.63,2.09,5.68,10.3,2.11,16.77,2.06c1.87,0,2.52-.68,2.48-1.66C133.41,538.73,132.7,539.1,131.31,539.11Z" transform="translate(-33.16 -280.29)"/></svg>