<svg id="Calque_1" data-name="Calque 1" xmlns="http://www.w3.org/2000/svg" xmlns:xlink="http://www.w3.org/1999/xlink" viewBox="0 0 418.18 303"><defs><style>.cls-1{fill:none;}.cls-2{clip-path:url(#clip-path);}.cls-3{fill:#2e2e2e;}.cls-4{fill:#fff;}.cls-5{fill:#f6a825;}.cls-6{fill:#3f3d56;}.cls-7{fill:#e2e2e2;}.cls-8{fill:#e3e3e3;}</style><clipPath id="clip-path" transform="translate(-73.16 -270.93)"><rect class="cls-1" x="73.16" y="270.93" width="448" height="303"/></clipPath></defs><title>la_maxi_binouze</title><g class="cls-2"><path class="cls-3" d="M237.53,561.77c-17.9-8.22-32.59-25.58-33-45.25a90.85,90.85,0,0,0,59.4,18.84c8.25-.38,17.39-1.66,24,3.26,4.12,3.07,6.42,8.1,7.25,13.16s.34,10.25-.14,15.36l.48,1.19C275.94,570.47,255.42,570,237.53,561.77Z" transform="translate(-73.16 -270.93)"/><path class="cls-4" d="M204.93,516.46A77.6,77.6,0,0,0,240.7,548a33.76,33.76,0,0,0,10.09,2.8A19.15,19.15,0,0,0,260.7,549c2.9-1.33,5.71-3,8.89-3.63a11.73,11.73,0,0,1,4.9.18,11.93,11.93,0,0,1,4.4,2.17c3.3,2.47,5.51,6,7.56,9.48,2.27,3.88,4.57,8,8.4,10.52.47.31,0,1-.51.71-6.67-4.47-8.58-12.91-14.12-18.41-2.58-2.57-6-4.37-9.69-3.92-3.27.4-6.17,2.14-9.09,3.51a20.35,20.35,0,0,1-9.63,2.17,30.86,30.86,0,0,1-10.15-2.4,75.19,75.19,0,0,1-20.14-12.15,78.63,78.63,0,0,1-17.38-20.39c-.29-.48.51-.83.79-.35Z" transform="translate(-73.16 -270.93)"/><path class="cls-4" d="M235.77,546.2A11.65,11.65,0,0,1,221.46,551c-.51-.21-.21-1,.31-.81a10.79,10.79,0,0,0,13.29-4.44c.29-.48,1,0,.71.5Z" transform="translate(-73.16 -270.93)"/><path class="cls-4" d="M259.32,549.84A22.36,22.36,0,0,0,250,536.4c-.46-.32.05-1,.51-.71a23.34,23.34,0,0,1,9.63,14c.13.55-.73.68-.86.14Z" transform="translate(-73.16 -270.93)"/><path class="cls-4" d="M215.63,530.92a6.53,6.53,0,0,0,1.59-6c-.13-.55.73-.68.86-.14a7.37,7.37,0,0,1-1.74,6.68.48.48,0,0,1-.29.17.45.45,0,0,1-.32-.07.42.42,0,0,1-.17-.28A.48.48,0,0,1,215.63,530.92Z" transform="translate(-73.16 -270.93)"/><path class="cls-3" d="M255,473c.1.33.19.67.29,1a87.27,87.27,0,0,0,4.89,13.18c.15.33.31.66.47,1a91.35,91.35,0,0,0,19.9,27.13,88.89,88.89,0,0,0,10.52,8.43c5.14,3.51,11,6.91,14.55,11.77a14.71,14.71,0,0,1,1,1.57l-9.73,30.57-.16.18-.33,1.24-.61-.37c-.12-.06-.23-.14-.35-.21l-.23-.13-.07-.05-.2-.11-3.45-2.14h0a130.87,130.87,0,0,1-24.17-19.19c-.22-.22-.44-.45-.65-.68a84.56,84.56,0,0,1-8.7-10.74,73.48,73.48,0,0,1-3.93-6.48,62.15,62.15,0,0,1-6.41-18.37c-2.31-12.8-.49-26.2,6.78-36.79C254.64,473.53,254.82,473.26,255,473Z" transform="translate(-73.16 -270.93)"/><path class="cls-4" d="M255.38,473.19a77.37,77.37,0,0,0,9.53,46.7,33.25,33.25,0,0,0,6.37,8.3,19.24,19.24,0,0,0,9,4.49c3.12.68,6.38,1,9.28,2.44a11.65,11.65,0,0,1,6,7.47c1.15,3.95.8,8.08.32,12.11-.53,4.47-1.15,9.1.36,13.46.19.52-.64.78-.83.25-2.63-7.57.94-15.47-.17-23.19-.52-3.6-2.12-7.07-5.38-9-2.84-1.65-6.21-2-9.38-2.66a20.43,20.43,0,0,1-9-4.06,30.94,30.94,0,0,1-6.66-8,75.16,75.16,0,0,1-8.75-21.81A78.78,78.78,0,0,1,254.53,473c.07-.55.91-.35.85.2Z" transform="translate(-73.16 -270.93)"/><path class="cls-4" d="M262.06,515.48a11.67,11.67,0,0,1-14.28-4.81c-.28-.48.45-.95.74-.47a10.78,10.78,0,0,0,13.29,4.45C262.33,514.44,262.58,515.27,262.06,515.48Z" transform="translate(-73.16 -270.93)"/><path class="cls-4" d="M278.68,532.54a22.37,22.37,0,0,0,.7-16.31c-.19-.53.64-.78.83-.26a23.33,23.33,0,0,1-.76,17C279.22,533.46,278.45,533.05,278.68,532.54Z" transform="translate(-73.16 -270.93)"/><path class="cls-4" d="M255.2,491.17a6.59,6.59,0,0,0,4.91-3.86c.22-.52,1-.11.77.4a7.39,7.39,0,0,1-5.42,4.29.42.42,0,0,1-.33,0,.45.45,0,0,1-.22-.25.42.42,0,0,1,0-.33A.44.44,0,0,1,255.2,491.17Z" transform="translate(-73.16 -270.93)"/><path class="cls-3" d="M487.72,560.31a40.25,40.25,0,0,1-7.17,10.33c-.65.68-1.33,1.34-2,2-.48.44-1,.88-1.47,1.31H443.15c0-.44.08-.88.14-1.31a10.79,10.79,0,0,1,1.45-4c2.82-4.53,8.62-5.92,13.67-7.64,1.21-.42,2.41-.87,3.58-1.36,1.51-.63,3-1.33,4.45-2.09a59.08,59.08,0,0,0,17.08-13.46l.45-.53a56.08,56.08,0,0,0,5.34-7.38c.12-.18.23-.38.34-.57.08.2.15.4.22.6C492.57,544.08,491.38,552.74,487.72,560.31Z" transform="translate(-73.16 -270.93)"/><path class="cls-4" d="M490,535.7l-.09.52a50.63,50.63,0,0,1-3.22,11.06,52.92,52.92,0,0,1-2.31,4.8,50.53,50.53,0,0,1-5.84,8.51c-.12.15-.25.29-.37.43a42.33,42.33,0,0,1-3,3.12,20,20,0,0,1-5.54,3.85,12.38,12.38,0,0,1-5.27,1l-1,0c-1.39-.09-2.81-.28-4.21-.24A9.28,9.28,0,0,0,457,569a7.44,7.44,0,0,0-2.56,1.36,7.09,7.09,0,0,0-1.81,2.26,9.23,9.23,0,0,0-.53,1,2.18,2.18,0,0,0-.11.27h-.6a11.89,11.89,0,0,1,.59-1.31,7.08,7.08,0,0,1,.38-.66,7.51,7.51,0,0,1,5-3.61,10.42,10.42,0,0,1,1.93-.18c1.43,0,2.86.18,4.28.26h1a12.15,12.15,0,0,0,5.39-1.26,21.91,21.91,0,0,0,5.4-4.07c.85-.84,1.67-1.72,2.45-2.63l.11-.11a49.63,49.63,0,0,0,8.08-13c.08-.17.15-.34.22-.51a50.42,50.42,0,0,0,3.07-10.64c0-.17.06-.34.08-.51C489.45,535.33,490,535.35,490,535.7Z" transform="translate(-73.16 -270.93)"/><path class="cls-4" d="M477.91,560.86a7.53,7.53,0,0,0,9.73-.53c.26-.25-.11-.67-.38-.42a7,7,0,0,1-9,.48c-.29-.22-.59.25-.31.47Z" transform="translate(-73.16 -270.93)"/><path class="cls-4" d="M464.61,568.62A14.53,14.53,0,0,1,467,558.34c.21-.3-.27-.6-.47-.3a15,15,0,0,0-2.46,10.7c.05.36.6.24.54-.12Z" transform="translate(-73.16 -270.93)"/><path class="cls-4" d="M486.39,546.91a4.28,4.28,0,0,1-1.6-1.33,4.1,4.1,0,0,1-.78-1.92c-.05-.36-.6-.24-.55.12a4.75,4.75,0,0,0,.87,2.13,4.82,4.82,0,0,0,1.76,1.47.28.28,0,0,0,.43-.29.27.27,0,0,0-.13-.18Z" transform="translate(-73.16 -270.93)"/><path class="cls-3" d="M462.81,554.83c-.2,1.63-.47,3.23-.82,4.82h0a54,54,0,0,1-2.69,8.52h0c-.07.2-.15.38-.23.56-.54,1.31-1.13,2.61-1.76,3.89-.21.44-.43.87-.66,1.31H434.56l-1.07-1.31-.38-.46a9.47,9.47,0,0,1,.26-1.2c1-3.76,3.7-7.19,6-10.52a57,57,0,0,0,4.32-7.56,58.84,58.84,0,0,0,5.53-21c0-.23,0-.47,0-.71a57.38,57.38,0,0,0-.18-9.08h0c0-.22-.05-.45-.07-.67l.52.35h0c6.87,4.64,11.14,12.24,12.8,20.46a.07.07,0,0,0,0,0A40.48,40.48,0,0,1,462.81,554.83Z" transform="translate(-73.16 -270.93)"/><path class="cls-4" d="M455.12,548.05c0,.18,0,.37,0,.55-.11,1.45-.28,2.89-.52,4.31a20.07,20.07,0,0,1-2.1,6.4,12.59,12.59,0,0,1-3.6,4c-.28.21-.56.4-.85.59-1.74,1.14-3.69,2.16-5,3.82a7,7,0,0,0-1.37,4.92,9.79,9.79,0,0,0,.17,1.31h-.56a8,8,0,0,1-.16-1.08c0-.08,0-.16,0-.23a7.45,7.45,0,0,1,.34-3,7.54,7.54,0,0,1,1.52-2.65,25.39,25.39,0,0,1,5-3.66l.37-.26.46-.34a11.91,11.91,0,0,0,3.54-4.24,21.55,21.55,0,0,0,1.85-6.49q.25-1.79.39-3.57v-.16h0a49.61,49.61,0,0,0-1.39-15.26c-.05-.18-.1-.36-.14-.54a50.89,50.89,0,0,0-4-10.33h0c-.09-.15-.16-.31-.24-.46-.18-.32.29-.64.45-.32l.24.46h0a50,50,0,0,1,4.12,10.84,47.7,47.7,0,0,1,1,5.14A50.88,50.88,0,0,1,455.12,548.05Z" transform="translate(-73.16 -270.93)"/><path class="cls-4" d="M454.81,548.61a7.5,7.5,0,0,0,7.44-6.27.28.28,0,0,0-.55-.11,7,7,0,0,1-6.93,5.82c-.37,0-.32.56,0,.56Z" transform="translate(-73.16 -270.93)"/><path class="cls-4" d="M448.87,562.8a14.43,14.43,0,0,1-4.29-9.64.28.28,0,0,0-.56,0,15.08,15.08,0,0,0,4.48,10C448.76,563.48,449.12,563.05,448.87,562.8Z" transform="translate(-73.16 -270.93)"/><path class="cls-4" d="M453.17,532.37a4.25,4.25,0,0,1-3.87-1.16c-.26-.26-.62.17-.37.42a4.78,4.78,0,0,0,2,1.18,4.72,4.72,0,0,0,2.3.12.27.27,0,0,0,.19-.1.31.31,0,0,0,.07-.2.27.27,0,0,0-.1-.19A.25.25,0,0,0,453.17,532.37Z" transform="translate(-73.16 -270.93)"/><path class="cls-3" d="M75.46,335.56c.53-19.67,10.73-40,28.68-48.1a90.52,90.52,0,0,0,6,61.94c3.6,7.42,8.38,15.31,6.45,23.33-1.2,5-4.92,9.09-9.26,11.84s-9.3,4.34-14.2,5.91l-.9.9C82.56,374.25,74.92,355.22,75.46,335.56Z" transform="translate(-73.16 -270.93)"/><path class="cls-4" d="M104.36,287.81a77.37,77.37,0,0,0-15,45.25,33.37,33.37,0,0,0,1.39,10.37,19.09,19.09,0,0,0,5.6,8.37c2.37,2.14,5,4.05,6.84,6.73a11.67,11.67,0,0,1,1.49,9.46c-1,4-3.33,7.41-5.75,10.67-2.69,3.61-5.53,7.33-6.39,11.85-.1.55-1,.36-.84-.19,1.48-7.88,8.51-12.95,11.39-20.2,1.35-3.38,1.68-7.19-.21-10.44-1.64-2.84-4.39-4.82-6.81-7a20.51,20.51,0,0,1-5.78-8,31,31,0,0,1-1.78-10.27,75.1,75.1,0,0,1,3.26-23.26,78.66,78.66,0,0,1,11.94-24c.33-.45,1,.14.64.59Z" transform="translate(-73.16 -270.93)"/><path class="cls-4" d="M89.1,327.82a11.64,11.64,0,0,1-10-11.27c0-.55.86-.59.87,0A10.76,10.76,0,0,0,89.29,327c.55.08.36.93-.19.85Z" transform="translate(-73.16 -270.93)"/><path class="cls-4" d="M95,350.87a22.37,22.37,0,0,0,8.72-13.8.44.44,0,0,1,.85.19,23.31,23.31,0,0,1-9.11,14.35C95,351.94,94.57,351.2,95,350.87Z" transform="translate(-73.16 -270.93)"/><path class="cls-4" d="M95.25,303.32a6.62,6.62,0,0,0,6.18-.91c.45-.34.91.4.46.73a7.42,7.42,0,0,1-6.84,1,.43.43,0,0,1-.26-.2.42.42,0,0,1,.13-.59.47.47,0,0,1,.33-.06Z" transform="translate(-73.16 -270.93)"/><path class="cls-3" d="M164.07,316.69l-.82.66a86.44,86.44,0,0,0-10.2,9.68c-.25.26-.5.54-.74.81a91.55,91.55,0,0,0-17.15,28.94,88.39,88.39,0,0,0-3.62,13c-1.22,6.09-2,12.8-5.11,18a15.24,15.24,0,0,1-1,1.57l-32,3.1-.23-.08-1.27.18.09-.7.06-.4,0-.27,0-.08c0-.08,0-.15,0-.23.2-1.33.4-2.67.62-4h0a130.61,130.61,0,0,1,8.16-29.74c.12-.29.24-.58.37-.86A83.83,83.83,0,0,1,107.76,344a74.18,74.18,0,0,1,4.41-6.16,62.18,62.18,0,0,1,14.4-13.11c10.88-7.16,23.93-10.76,36.54-8.25Z" transform="translate(-73.16 -270.93)"/><path class="cls-4" d="M164,317.1a77.58,77.58,0,0,0-39.25,27.13,33.26,33.26,0,0,0-5.14,9.1,19.11,19.11,0,0,0-.58,10.06c.6,3.13,1.58,6.26,1.41,9.48a11.79,11.79,0,0,1-1.36,4.71,11.54,11.54,0,0,1-3.16,3.75c-3.19,2.6-7.13,3.91-11,5.06-4.33,1.27-8.84,2.52-12.25,5.62-.41.38-1-.28-.56-.66,5.94-5.4,14.61-5.23,21.28-9.28,3.11-1.89,5.67-4.73,6.13-8.46.4-3.26-.61-6.49-1.24-9.66a20.39,20.39,0,0,1,.2-9.85,30.68,30.68,0,0,1,4.77-9.27,75.08,75.08,0,0,1,16.63-16.61,78.79,78.79,0,0,1,24-12c.53-.16.68.69.15.85Z" transform="translate(-73.16 -270.93)"/><path class="cls-4" d="M127.73,339.88a11.64,11.64,0,0,1-1.19-15c.33-.45,1,0,.72.49a10.75,10.75,0,0,0,1.14,13.95c.39.4-.27,1-.67.57Z" transform="translate(-73.16 -270.93)"/><path class="cls-4" d="M118.56,361.84a22.47,22.47,0,0,0,15.29-5.78c.42-.37,1,.29.56.66a23.36,23.36,0,0,1-15.92,6c-.56,0-.49-.88.07-.87Z" transform="translate(-73.16 -270.93)"/><path class="cls-4" d="M147.41,324a6.55,6.55,0,0,0,2.37,2.19,6.67,6.67,0,0,0,3.12.8c.56,0,.49.86-.07.86a7.38,7.38,0,0,1-6.08-3.29.45.45,0,0,1-.1-.31.48.48,0,0,1,.15-.3.44.44,0,0,1,.61.05Z" transform="translate(-73.16 -270.93)"/><path class="cls-4" d="M391.17,572.84h-91.4A19.27,19.27,0,0,1,280.5,553.6V412.85a19.27,19.27,0,0,1,19.27-19.24h91.4a19.26,19.26,0,0,1,19.26,19.24V553.6a19.26,19.26,0,0,1-19.26,19.24Z" transform="translate(-73.16 -270.93)"/><path class="cls-5" d="M381.26,558.86H309.68a19,19,0,0,1-19-19V426.55a19,19,0,0,1,19-19h71.58a19,19,0,0,1,19,19V539.9a19,19,0,0,1-19,19Z" transform="translate(-73.16 -270.93)"/><path class="cls-6" d="M410.14,517.61H281.31V547.3H410.14Z" transform="translate(-73.16 -270.93)"/><path class="cls-4" d="M98.65,446.35l-21.81-28a17.42,17.42,0,0,1-3.55-12.88,17.47,17.47,0,0,1,6.61-11.6l88.36-68.63a33.42,33.42,0,0,1,18-6.94l7.45-.57,64.18-37.54a5.42,5.42,0,0,1-.26-3.9,5.48,5.48,0,0,1,2.4-3.09,5.55,5.55,0,0,1,3.86-.7,5.48,5.48,0,0,1,3.34,2L285.44,298a5.5,5.5,0,0,1-7.83,7.63L225.12,358a33.23,33.23,0,0,1-12.63,22l-89.32,69.37a17.47,17.47,0,0,1-19.36,1.39A17.36,17.36,0,0,1,98.65,446.35Z" transform="translate(-73.16 -270.93)"/><path class="cls-6" d="M391.17,572.84h-91.4A19.27,19.27,0,0,1,280.5,553.6V412.85a19.27,19.27,0,0,1,19.27-19.24h91.4a19.26,19.26,0,0,1,19.26,19.24V553.6a19.26,19.26,0,0,1-19.26,19.24Zm-91.4-178.13a18.18,18.18,0,0,0-18.17,18.14V553.6a18.18,18.18,0,0,0,18.17,18.14h91.4a18.16,18.16,0,0,0,18.16-18.14V412.85a18.16,18.16,0,0,0-18.16-18.14Z" transform="translate(-73.16 -270.93)"/><path class="cls-5" d="M283.39,277.63A33.19,33.19,0,0,1,314,280.5c9.22,5.92,16.09,16.57,18.39,28.51,1.12,5.85,1.53,12.66,5.63,16.3,3,2.67,7.09,2.74,10.7,4,10.69,3.81,16.21,18.62,14.65,31.48s-8.49,23.94-15.92,33.64c2.36-5.21-.71-12-5.2-14.7s-9.85-2.51-14.9-2.05-10.33,1-15-1.15c-8.06-3.7-12.14-14.44-12.74-24.49s1.4-20,1.54-30.11S299,300.87,292,294.88c-3.2-2.76-7.17-4.23-10.14-7.3s-4.58-8.92-1.8-12.23" transform="translate(-73.16 -270.93)"/><path class="cls-7" d="M395.28,389c-.29,0-.58,0-.86,0A14.86,14.86,0,0,0,374,370.61c-2.38-6.7-7.5-11.34-13.44-11.34s-11,4.64-13.44,11.34a14.85,14.85,0,0,0-12.76,0c-2.38-6.7-7.5-11.34-13.44-11.34s-11.06,4.64-13.44,11.34A14.85,14.85,0,0,0,287.13,389c-.29,0-.58,0-.87,0-8.21,0-14.86,8.86-14.86,19.8s6.65,19.79,14.86,19.79c6.77,0,12.47-6,14.27-14.24a14.88,14.88,0,0,0,16.89,2.91c2.38,6.69,7.51,11.33,13.44,11.33,6.76,0,12.47-6,14.27-14.24A14.88,14.88,0,0,0,362,417.22c2.38,6.69,7.5,11.33,13.44,11.33s11.06-4.64,13.44-11.33a14.88,14.88,0,0,0,18-4.19,14.87,14.87,0,0,0,2.84-12.55,15,15,0,0,0-2.88-5.94A14.89,14.89,0,0,0,395.28,389Z" transform="translate(-73.16 -270.93)"/><path class="cls-4" d="M316,431.3a2.75,2.75,0,1,0-2.76-2.75A2.75,2.75,0,0,0,316,431.3Z" transform="translate(-73.16 -270.93)"/><path class="cls-4" d="M333.06,478a2.75,2.75,0,1,0-2.75-2.75A2.76,2.76,0,0,0,333.06,478Z" transform="translate(-73.16 -270.93)"/><path class="cls-4" d="M350.68,446.14a2.75,2.75,0,1,0-2.75-2.75A2.75,2.75,0,0,0,350.68,446.14Z" transform="translate(-73.16 -270.93)"/><path class="cls-4" d="M330.86,456a2.75,2.75,0,1,0-2.75-2.75A2.75,2.75,0,0,0,330.86,456Z" transform="translate(-73.16 -270.93)"/><path class="cls-4" d="M365.55,485.72a2.75,2.75,0,1,0-2.76-2.74A2.75,2.75,0,0,0,365.55,485.72Z" transform="translate(-73.16 -270.93)"/><path class="cls-4" d="M375.46,431.3a2.75,2.75,0,1,0-2.75-2.75A2.75,2.75,0,0,0,375.46,431.3Z" transform="translate(-73.16 -270.93)"/><path class="cls-6" d="M409.88,528.06V527a51.28,51.28,0,1,0,0-102.56v-1.1a52.38,52.38,0,1,1,0,104.76Z" transform="translate(-73.16 -270.93)"/><path class="cls-6" d="M410.14,518.16h-.55v-1.38h1.11v.28a39.3,39.3,0,0,0-.56-78.59v-1.1a40.4,40.4,0,1,1,0,80.79Z" transform="translate(-73.16 -270.93)"/><path class="cls-5" d="M103.26,439.62,84.5,415.54a15,15,0,0,1-2.59-5.17,14.79,14.79,0,0,1,5.19-15.6l76-59a28.53,28.53,0,0,1,15.32-5.92l6.45-.5,59.49-34.79,16,20.53-48.68,48.61a28.31,28.31,0,0,1-10.8,18.88l-76.79,59.64a14.86,14.86,0,0,1-10.94,3,14.8,14.8,0,0,1-9.86-5.6Z" transform="translate(-73.16 -270.93)"/><path class="cls-7" d="M280.11,298.62a7.19,7.19,0,0,0,6.14-1.53c2.88-2.23,3.85-5.8,2.17-7.95a3.74,3.74,0,0,0-1.12-1,4.32,4.32,0,0,0,.17-2.05,4.38,4.38,0,0,0-.79-1.9,3.51,3.51,0,0,0-.76-.73c1.9-2.62,2.61-5,1.63-6.21a2.8,2.8,0,0,0-1-.71,2.86,2.86,0,0,0-1.23-.19,4.1,4.1,0,0,0-.79-3c-1.42-1.82-4.28-2.05-6.86-.74a1,1,0,0,1-.09-.13c-1.68-2.16-5.38-2.09-8.26.15a7.69,7.69,0,0,0-2.88,4.36,7.69,7.69,0,0,0-4.94,1.71c-2.88,2.24-3.86,5.8-2.18,8l.24.27,0,0c-.07-.1-.13-.2-.21-.3-1.68-2.16-5.37-2.09-8.25.14a7.66,7.66,0,0,0-2.88,4.37,7.68,7.68,0,0,0-4.95,1.71c-2.88,2.24-3.85,5.8-2.17,8s5.38,2.1,8.26-.14a4.93,4.93,0,0,0-1,6.77,4.89,4.89,0,0,0,1.92,1.6c-.61,1.46-.67,2.7,0,3.49,1,1.25,3.42,1.14,6.43-.05a3.64,3.64,0,0,0,.52.92c1.68,2.16,5.38,2.09,8.26-.15a7.59,7.59,0,0,0,2.87-4.36,7.68,7.68,0,0,0,4.95-1.71,8.26,8.26,0,0,0,1.73-1.81,8.22,8.22,0,0,0,2.18-1.23A7.13,7.13,0,0,0,280.11,298.62Z" transform="translate(-73.16 -270.93)"/><path class="cls-6" d="M98.65,446.35l-21.81-28a17.42,17.42,0,0,1-3.55-12.88,17.47,17.47,0,0,1,6.61-11.6l88.36-68.63a33.42,33.42,0,0,1,18-6.94l7.45-.57,64.18-37.54a5.42,5.42,0,0,1-.26-3.9,5.48,5.48,0,0,1,2.4-3.09,5.55,5.55,0,0,1,3.86-.7,5.48,5.48,0,0,1,3.34,2L285.44,298a5.5,5.5,0,0,1-7.83,7.63L225.12,358a33.23,33.23,0,0,1-12.63,22l-89.32,69.37a17.47,17.47,0,0,1-19.36,1.39A17.36,17.36,0,0,1,98.65,446.35ZM266.32,275.2a4.43,4.43,0,0,0-2.79-1.65,4.47,4.47,0,0,0-3.16.7,4.35,4.35,0,0,0-1.82,2.67,4.42,4.42,0,0,0,.49,3.2l.28.47L194,318.79l-7.7.6a32.26,32.26,0,0,0-17.36,6.71L80.58,394.73a16.37,16.37,0,0,0-6.2,10.87,16.34,16.34,0,0,0,3.32,12.06l21.82,28a16.38,16.38,0,0,0,23,2.87l89.32-69.37a32.13,32.13,0,0,0,12.24-21.49l0-.19,53.52-53.44.39.39a4.4,4.4,0,0,0,6.59-5.81Z" transform="translate(-73.16 -270.93)"/><path class="cls-6" d="M148.8,341l-31.29,24.3L160.1,420l31.3-24.3Z" transform="translate(-73.16 -270.93)"/><path class="cls-6" d="M118.29,365.44l41.91,53.81,30.42-23.63-41.91-53.81Z" transform="translate(-73.16 -270.93)"/><path class="cls-4" d="M240.61,316.48a2.75,2.75,0,1,0-2.75-2.75A2.75,2.75,0,0,0,240.61,316.48Z" transform="translate(-73.16 -270.93)"/><path class="cls-4" d="M218.88,320.82a2.75,2.75,0,1,0-2.75-2.75A2.75,2.75,0,0,0,218.88,320.82Z" transform="translate(-73.16 -270.93)"/><path class="cls-4" d="M220.19,338.61a2.75,2.75,0,1,0-2.75-2.75A2.75,2.75,0,0,0,220.19,338.61Z" transform="translate(-73.16 -270.93)"/><path class="cls-4" d="M198.46,343a2.75,2.75,0,1,0-2.75-2.75A2.75,2.75,0,0,0,198.46,343Z" transform="translate(-73.16 -270.93)"/><path class="cls-4" d="M311.59,310.34a2.75,2.75,0,1,0-2.75-2.75A2.75,2.75,0,0,0,311.59,310.34Z" transform="translate(-73.16 -270.93)"/><path class="cls-4" d="M321.5,325.19a2.75,2.75,0,1,0-2.75-2.75A2.75,2.75,0,0,0,321.5,325.19Z" transform="translate(-73.16 -270.93)"/><path class="cls-4" d="M321.5,349.93a2.75,2.75,0,1,0-2.75-2.75A2.75,2.75,0,0,0,321.5,349.93Z" transform="translate(-73.16 -270.93)"/><path class="cls-8" d="M281.36,366.32c-3.05.09-12.8.73-17.87,5-6.05,5.08-6.05,9.9-3.12,13.39s7.69,4.32,13.75-.76c5.13-4.3,7.44-14,8-16.82Z" transform="translate(-73.16 -270.93)"/><path class="cls-8" d="M359.64,305.18c1.94,2.35,8.41,9.67,14.87,11.07,7.73,1.68,11.55-1.27,12.52-5.72s-1.28-8.72-9-10.4c-6.54-1.42-15.62,2.67-18.23,3.95Z" transform="translate(-73.16 -270.93)"/><path class="cls-8" d="M409.17,377.2c.35,3,1.83,12.67,6.51,17.35,5.59,5.58,10.4,5.17,13.63,1.95s3.64-8-1.95-13.61c-4.73-4.73-14.58-6.2-17.47-6.53Z" transform="translate(-73.16 -270.93)"/></g></svg>