<svg id="Calque_1" data-name="Calque 1" xmlns="http://www.w3.org/2000/svg" viewBox="0 0 400 414"><defs><style>.cls-1{fill:#e6e6e6;}.cls-2{fill:#ccc;}.cls-3{fill:#f6a825;}.cls-4{fill:#3f3d56;}.cls-5{fill:#2f2e41;}.cls-6{fill:#f5b8b9;}</style></defs><title>le_mec_toque</title><path class="cls-1" d="M188.45,215.1,173.29,225l157.9,240.31,15.16-9.93Z" transform="translate(-97.64 -70.34)"/><path class="cls-1" d="M152.35,124.67l35.08,53.38a4.66,4.66,0,0,1-1.34,6.46,4.72,4.72,0,0,1-3.51.66,4.64,4.64,0,0,1-3-2l-40.33-61.37a33.31,33.31,0,0,0-16,2.63l43.94,66.87a4.66,4.66,0,0,1-4.86,7.11,4.67,4.67,0,0,1-3-2l-43.94-66.87a33.35,33.35,0,0,0-8.8,13.62L147,204.52a4.67,4.67,0,0,1-7.81,5.11l-35.08-53.38c-.9,14.88,4,32.53,14.62,48.74,19.8,30.14,52.11,43.94,72.15,30.81s20.25-48.19.44-78.33C180.67,141.25,166.39,129.77,152.35,124.67Z" transform="translate(-97.64 -70.34)"/><path class="cls-1" d="M256.43,182.22H238.3V469.6h18.13Z" transform="translate(-97.64 -70.34)"/><path class="cls-1" d="M247.09,200.87c24,0,43.4-29.22,43.4-65.26s-19.43-65.27-43.4-65.27-43.41,29.22-43.41,65.27S223.12,200.87,247.09,200.87Z" transform="translate(-97.64 -70.34)"/><path class="cls-2" d="M247.09,189.3c19.72,0,35.71-24,35.71-53.69s-16-53.7-35.71-53.7-35.72,24-35.72,53.7S227.36,189.3,247.09,189.3Z" transform="translate(-97.64 -70.34)"/><path class="cls-1" d="M297.64,484.34c110.45,0,200-5.12,200-11.45s-89.55-11.45-200-11.45-200,5.12-200,11.45S187.18,484.34,297.64,484.34Z" transform="translate(-97.64 -70.34)"/><path class="cls-3" d="M415.92,472.72a640.31,640.31,0,0,0-226.67,0,8.21,8.21,0,0,1-3.59-.14,8.32,8.32,0,0,1-3.18-1.64,8.26,8.26,0,0,1-3-6.33V362.11H425.66v102.5a8.26,8.26,0,0,1-3,6.33,8.36,8.36,0,0,1-3.19,1.64A8.17,8.17,0,0,1,415.92,472.72Z" transform="translate(-97.64 -70.34)"/><path class="cls-3" d="M403.13,286.43a51,51,0,0,0-16.7,2.78,98.44,98.44,0,0,0-178.26-.89,51,51,0,1,0,6.68,95.83A98.46,98.46,0,0,0,380.1,383a51,51,0,1,0,23-96.54Z" transform="translate(-97.64 -70.34)"/><path class="cls-4" d="M199.29,330.3h-1.1a97.73,97.73,0,0,1,9.47-42.22l1,.47A96.49,96.49,0,0,0,199.29,330.3Z" transform="translate(-97.64 -70.34)"/><path class="cls-4" d="M396,330.3h-1.1a96.75,96.75,0,0,0-8.95-40.86l1-.46A97.93,97.93,0,0,1,396,330.3Z" transform="translate(-97.64 -70.34)"/><path class="cls-4" d="M179.64,409.81l-.27-1.07c.31-.08,31.54-7.73,77.31-11.53,42.24-3.51,105.87-4.35,169.11,11.53l-.26,1.06C362.44,394,299,394.8,256.8,398.3,211.11,402.09,180,409.73,179.64,409.81Z" transform="translate(-97.64 -70.34)"/><path class="cls-4" d="M179.64,424.61l-.27-1.06c.31-.08,31.54-7.73,77.31-11.53,42.24-3.51,105.87-4.35,169.11,11.53l-.26,1.06c-63.09-15.84-126.58-15-168.73-11.5C211.11,416.9,180,424.54,179.64,424.61Z" transform="translate(-97.64 -70.34)"/><path class="cls-4" d="M179.64,439.42l-.27-1.06c.31-.08,31.54-7.74,77.31-11.54,42.24-3.5,105.87-4.35,169.11,11.54l-.26,1.06c-63.09-15.84-126.58-15-168.73-11.5C211.11,431.71,180,439.34,179.64,439.42Z" transform="translate(-97.64 -70.34)"/><path class="cls-5" d="M381.85,358.9l-13.31-4.52,12.78-65.11-8.79-.8c-8.57,6.57-20,9.14-34.61,7.18L361.35,331l-12,8.41-38.11-45.63a11.43,11.43,0,0,1-.36-14.21,11.52,11.52,0,0,1,6-4.11l40.7-11.7,47.66,5.31c7.21,11,7.49,18.59-3.48,20.79Z" transform="translate(-97.64 -70.34)"/><path class="cls-5" d="M368.22,384.23a8.71,8.71,0,0,1-3.9-1.19,8.73,8.73,0,0,1-3.71-10.71l6.61-17c3.37-6.36,8-5.56,13.43,0l2.66,7.79a5,5,0,0,1-.29,3.94l-6.45,12.45a8.74,8.74,0,0,1-8.35,4.71Z" transform="translate(-97.64 -70.34)"/><path class="cls-5" d="M351,362a8.8,8.8,0,0,1-6.84-4,8.76,8.76,0,0,1-.78-7.88l6.62-17c3.36-6.35,8-5.56,13.42,0l2.67,7.8a5.2,5.2,0,0,1,.25,2,5,5,0,0,1-.55,1.93l-6.45,12.45A8.77,8.77,0,0,1,351,362Z" transform="translate(-97.64 -70.34)"/><path class="cls-6" d="M359.48,201.57a14.89,14.89,0,1,0-14.91-14.89A14.9,14.9,0,0,0,359.48,201.57Z" transform="translate(-97.64 -70.34)"/><path class="cls-6" d="M382.65,207.68l-20.5,10.63-4.26-19.14L372,190.4Z" transform="translate(-97.64 -70.34)"/><path class="cls-4" d="M407.41,271.73c-20.46-6.17-39-9.36-52.45-4.52,4.63-13-3.92-32.86-13.32-53.15,4.06-5.29,10.52-7.34,17.84-8.24,8,5.8,13.6,2.08,17.84-6.91,9.26-.37,18.19,2.9,26.9,8.5C397.41,229.18,398.63,250.61,407.41,271.73Z" transform="translate(-97.64 -70.34)"/><path class="cls-4" d="M354.69,270.4c-3.23,1.9-6.21,5.1-9.05,9a49.94,49.94,0,0,1-12.36-10.25,21.89,21.89,0,0,1-4-20.53l9.09-29.51a12.93,12.93,0,0,1,4.22-6.24l1.2-1,12,22.59-12,22.33C345.29,260.91,349.77,265.61,354.69,270.4Z" transform="translate(-97.64 -70.34)"/><path class="cls-6" d="M358.81,292.91A7.69,7.69,0,0,1,348,287l-2-13.53,6.92-3.73,8.79,11.49a7.61,7.61,0,0,1,1.42,3.11,7.68,7.68,0,0,1-4.35,8.54Z" transform="translate(-97.64 -70.34)"/><path class="cls-5" d="M374.53,186l-2.55.08-7.06-10A37.79,37.79,0,0,0,342.18,187l-.64-4.23a16,16,0,0,1,12.59-18h0a16,16,0,0,1,19,13Z" transform="translate(-97.64 -70.34)"/><path class="cls-6" d="M345.89,279.44a7.71,7.71,0,0,1,.25-6.86,7.66,7.66,0,0,1,5.64-3.92l13.56-2,3.73,6.91-11.5,8.77a7.7,7.7,0,0,1-11.68-2.92Z" transform="translate(-97.64 -70.34)"/><path class="cls-4" d="M410,267.13c-12.89,1-27,5-41.72,10.71a20.3,20.3,0,0,0-4.53-12c13.39-3.52,25.54-7.65,33-14.08l-4.53-34,9.86-11.16,1.7.88a11.32,11.32,0,0,1,5.75,7.21c4.16,16.15,6,31.62,4.74,46.19a5.73,5.73,0,0,1-4.29,6.23Z" transform="translate(-97.64 -70.34)"/><path class="cls-4" d="M150.32,469.66q-18,11.23-36,0a2.42,2.42,0,0,1-1.15-2.24l3.74-48.57H147.2l4.27,48.55a2.43,2.43,0,0,1-.25,1.3A2.34,2.34,0,0,1,150.32,469.66Z" transform="translate(-97.64 -70.34)"/><path class="cls-4" d="M131.92,424.88c8.44,0,15.28-2.46,15.28-5.49s-6.84-5.5-15.28-5.5-15.28,2.46-15.28,5.5S123.48,424.88,131.92,424.88Z" transform="translate(-97.64 -70.34)"/><path class="cls-3" d="M143.9,417.53q-11.94,8.39-23.12,0v-8.79H143.9Z" transform="translate(-97.64 -70.34)"/><path class="cls-3" d="M132.34,413.14c6.38,0,11.56-2,11.56-4.4s-5.18-4.4-11.56-4.4-11.56,2-11.56,4.4S126,413.14,132.34,413.14Z" transform="translate(-97.64 -70.34)"/><path class="cls-1" d="M132.89,408.74c.6,0,1.1-.25,1.1-.55s-.5-.55-1.1-.55-1.1.25-1.1.55S132.28,408.74,132.89,408.74Z" transform="translate(-97.64 -70.34)"/><path class="cls-1" d="M138.08,408.74c.61,0,1.11-.25,1.11-.55s-.5-.55-1.11-.55-1.1.25-1.1.55S137.48,408.74,138.08,408.74Z" transform="translate(-97.64 -70.34)"/><path class="cls-1" d="M135.49,410c.6,0,1.1-.25,1.1-.55s-.5-.55-1.1-.55-1.11.24-1.11.55S134.88,410,135.49,410Z" transform="translate(-97.64 -70.34)"/><path class="cls-1" d="M125.09,410c.61,0,1.1-.25,1.1-.55s-.49-.55-1.1-.55-1.1.24-1.1.55S124.48,410,125.09,410Z" transform="translate(-97.64 -70.34)"/><path class="cls-1" d="M127.69,408.74c.61,0,1.1-.25,1.1-.55s-.49-.55-1.1-.55-1.1.25-1.1.55S127.08,408.74,127.69,408.74Z" transform="translate(-97.64 -70.34)"/><path class="cls-1" d="M130.29,410.69c.61,0,1.1-.25,1.1-.55s-.49-.55-1.1-.55-1.1.24-1.1.55S129.68,410.69,130.29,410.69Z" transform="translate(-97.64 -70.34)"/><path class="cls-4" d="M482.74,469.66q-18,11.23-36,0a2.35,2.35,0,0,1-.89-1,2.48,2.48,0,0,1-.26-1.28l3.74-48.57h30.28l4.27,48.55a2.43,2.43,0,0,1-.25,1.3A2.47,2.47,0,0,1,482.74,469.66Z" transform="translate(-97.64 -70.34)"/><path class="cls-4" d="M464.34,424.88c8.44,0,15.28-2.46,15.28-5.49s-6.84-5.5-15.28-5.5-15.28,2.46-15.28,5.5S455.9,424.88,464.34,424.88Z" transform="translate(-97.64 -70.34)"/><path class="cls-3" d="M476.31,417.53q-11.94,8.39-23.12,0v-8.79h23.12Z" transform="translate(-97.64 -70.34)"/><path class="cls-3" d="M464.75,413.14c6.39,0,11.56-2,11.56-4.4s-5.17-4.4-11.56-4.4-11.56,2-11.56,4.4S458.37,413.14,464.75,413.14Z" transform="translate(-97.64 -70.34)"/><path class="cls-1" d="M465.3,408.74c.61,0,1.1-.25,1.1-.55s-.49-.55-1.1-.55-1.1.25-1.1.55S464.7,408.74,465.3,408.74Z" transform="translate(-97.64 -70.34)"/><path class="cls-1" d="M470.5,408.74c.61,0,1.1-.25,1.1-.55s-.49-.55-1.1-.55-1.1.25-1.1.55S469.89,408.74,470.5,408.74Z" transform="translate(-97.64 -70.34)"/><path class="cls-1" d="M467.9,410c.61,0,1.1-.25,1.1-.55s-.49-.55-1.1-.55-1.1.24-1.1.55S467.3,410,467.9,410Z" transform="translate(-97.64 -70.34)"/><path class="cls-1" d="M457.51,410c.6,0,1.1-.25,1.1-.55s-.5-.55-1.1-.55-1.1.24-1.1.55S456.9,410,457.51,410Z" transform="translate(-97.64 -70.34)"/><path class="cls-1" d="M460.11,408.74c.6,0,1.1-.25,1.1-.55s-.5-.55-1.1-.55-1.11.25-1.11.55S459.5,408.74,460.11,408.74Z" transform="translate(-97.64 -70.34)"/><path class="cls-1" d="M462.7,410.69c.61,0,1.11-.25,1.11-.55s-.5-.55-1.11-.55-1.1.24-1.1.55S462.1,410.69,462.7,410.69Z" transform="translate(-97.64 -70.34)"/></svg>