<svg id="Calque_1" data-name="Calque 1" xmlns="http://www.w3.org/2000/svg" viewBox="0 0 402.24 405.94"><defs><style>.cls-1{fill:#f6cfbb;}.cls-2{fill:#9f616a;}.cls-3{fill:#2f2e41;}.cls-4{fill:#f6a825;}.cls-5{fill:#3f3d56;}.cls-6{fill:#fff;}.cls-7{fill:#e6e6e6;}.cls-8{opacity:0.2;isolation:isolate;}.cls-9{fill:#f6a824;}</style></defs><title>mobile_and_meuf</title><circle class="cls-1" cx="212.24" cy="215.94" r="190"/><path class="cls-2" d="M420.58,384.45a5.35,5.35,0,0,1,1.05,1.95,5.32,5.32,0,0,1-2.09,5.89l-25.92,17.82-11.42,7.62a3.11,3.11,0,0,1-2.2.49,3.15,3.15,0,0,1-2-1.11h0a3.29,3.29,0,0,1-.61-1.21,3.23,3.23,0,0,1-.05-1.35,3.16,3.16,0,0,1,.52-1.24,3.12,3.12,0,0,1,1-.91L389.94,406l19.3-18.4-12.41-13.34,9.19-6.9Z" transform="translate(-96.16 -218.93)"/><path class="cls-2" d="M359.62,552.26h-6.34l-3.77-52.44,16.08-.46Z" transform="translate(-96.16 -218.93)"/><path class="cls-3" d="M360.08,569.28c-1.69.78-3.11-5.48-4.53-4.08-4,3.93-10.1,4.78-15.42,3.07l1.86,0a2.6,2.6,0,0,1-.87-.5,2.33,2.33,0,0,1-.61-.79,2.47,2.47,0,0,1-.09-2h0a2.43,2.43,0,0,1,1.73-1.54l4.24-1.07,6.66-11.73,6.8-.46a16.28,16.28,0,0,1,3,13.88C362.24,566.59,361.29,568.73,360.08,569.28Z" transform="translate(-96.16 -218.93)"/><path class="cls-2" d="M401.84,552.26H395.5l-3.77-52.44,16.54-3.22Z" transform="translate(-96.16 -218.93)"/><path class="cls-3" d="M402.3,569.28c-1.69.78-3.11-5.48-4.53-4.08-4,3.93-10.1,4.78-15.42,3.07l1.86,0a2.75,2.75,0,0,1-.88-.5,2.44,2.44,0,0,1-.6-.79,2.58,2.58,0,0,1-.25-1,2.4,2.4,0,0,1,.16-1,2.49,2.49,0,0,1,.67-1,2.45,2.45,0,0,1,1.06-.55l4.24-1.07,6.66-11.73,7.26-.92.18.3a18.74,18.74,0,0,1,2,15.33C404.11,567.3,403.29,568.83,402.3,569.28Z" transform="translate(-96.16 -218.93)"/><path class="cls-4" d="M409,368.51c-5.83.82-9.87,4-11.51,10.39L386.8,359.09a5.86,5.86,0,0,1,9.83-6.29Z" transform="translate(-96.16 -218.93)"/><path class="cls-3" d="M420.26,494.3c-26.06,11.54-52.73,13-79.93,5.52,9.93-38.58,21.66-73.47,21.59-102.13l26.64-2.3,4.11,6.51a144.59,144.59,0,0,1,19.79,50.58Z" transform="translate(-96.16 -218.93)"/><path class="cls-2" d="M376.62,338.34a13.8,13.8,0,1,0-13.78-13.8A13.78,13.78,0,0,0,376.62,338.34Z" transform="translate(-96.16 -218.93)"/><path class="cls-2" d="M391.78,348.93l-17,.92L372,334.66l13.79-2.3Z" transform="translate(-96.16 -218.93)"/><path class="cls-4" d="M389.94,397.69l-18.62.52-9.4,1.32c-4.62-15.27-8.5-30.5.92-43.24l11-11.05,16.54-.46.22.13a13.35,13.35,0,0,1,6.1,15.52C392.62,373.78,390,386.39,389.94,397.69Z" transform="translate(-96.16 -218.93)"/><path class="cls-2" d="M361.46,440.47l-1.16,15.81a3.51,3.51,0,0,1-1,2.24,3.55,3.55,0,0,1-2.25,1h0a3.49,3.49,0,0,1-3.48-2.17,3.5,3.5,0,0,1-.27-1.43l.37-15.47,11.48-43.7.46-26.68,12.87-.46-.92,30.82Z" transform="translate(-96.16 -218.93)"/><path class="cls-4" d="M379.83,371.93c-5.45-2.22-10.54-1.48-15.16,3.22l.64-22.53a5.85,5.85,0,0,1,5.34-5.52h0a5.88,5.88,0,0,1,6.31,5Z" transform="translate(-96.16 -218.93)"/><path class="cls-3" d="M405.79,386H363.53c9.86-26.15,13-50.47,0-71.31.22-6.26,8.24-11.68,14.46-11.08,7.36.7,17.23,6.11,18.61,13.38Z" transform="translate(-96.16 -218.93)"/><path class="cls-5" d="M271.1,302.42h-1.93V249.53a30.55,30.55,0,0,0-30.56-30.6H126.72a30.57,30.57,0,0,0-30.56,30.6V539.66a30.58,30.58,0,0,0,30.56,30.61H238.61a30.61,30.61,0,0,0,30.56-30.61V340.06h1.93Z" transform="translate(-96.16 -218.93)"/><path class="cls-6" d="M239.84,226.89H225.23a10.86,10.86,0,0,1-10,15H151.1a10.86,10.86,0,0,1-10.79-9.75,10.92,10.92,0,0,1,.75-5.21H127.42a22.81,22.81,0,0,0-16.14,6.69,23,23,0,0,0-5,7.42,22.8,22.8,0,0,0-1.74,8.75v289.7a22.83,22.83,0,0,0,22.83,22.85H239.84a22.83,22.83,0,0,0,22.82-22.85V249.75a22.82,22.82,0,0,0-22.82-22.86Z" transform="translate(-96.16 -218.93)"/><path class="cls-7" d="M242.92,272.14H124.33V374H242.92Z" transform="translate(-96.16 -218.93)"/><path class="cls-4" d="M159.52,395.25a8.69,8.69,0,1,0-8.67-8.69A8.68,8.68,0,0,0,159.52,395.25Z" transform="translate(-96.16 -218.93)"/><path class="cls-6" d="M163.86,385.83h-3.61v-3.62H158.8v3.62h-3.61v1.45h3.61v3.62h1.45v-3.62h3.61Z" transform="translate(-96.16 -218.93)"/><path class="cls-4" d="M205.32,395.25a8.69,8.69,0,1,0-8.68-8.69A8.69,8.69,0,0,0,205.32,395.25Z" transform="translate(-96.16 -218.93)"/><path class="cls-6" d="M209.66,387.28v-1.45H201v1.45Z" transform="translate(-96.16 -218.93)"/><path class="cls-4" d="M188.05,284.85h-9.37a1.23,1.23,0,0,0-1.24,1.24v4.12a1.23,1.23,0,0,0,1.24,1.24h1.55v6.18h6.27v-6.18h1.55a1.23,1.23,0,0,0,1.24-1.24v-4.12a1.23,1.23,0,0,0-1.24-1.24Z" transform="translate(-96.16 -218.93)"/><path class="cls-5" d="M197.44,322.55a48.25,48.25,0,0,1-8.38-28.61,1.06,1.06,0,0,0-.22-.65,1,1,0,0,0-.58-.37v-1.78h-9.9v1.76h-.13a1,1,0,0,0-.39.08.91.91,0,0,0-.33.22,1,1,0,0,0-.22.33,1,1,0,0,0-.08.39.17.17,0,0,0,0,.07,44.12,44.12,0,0,1-7.9,29.29,2.76,2.76,0,0,0-.51,1.69l1.08,33.53a2.9,2.9,0,0,0,2.88,2.8h22.38a2.9,2.9,0,0,0,2.88-2.85l.42-32.55a5.89,5.89,0,0,0-1-3.35Z" transform="translate(-96.16 -218.93)"/><path class="cls-8" d="M186.1,286.19a2.72,2.72,0,0,1-.79,1.9,2.69,2.69,0,0,1-3.79,0,2.71,2.71,0,0,1-.78-1.9" transform="translate(-96.16 -218.93)"/><path class="cls-4" d="M193.89,333.68h-2.71a7.11,7.11,0,0,0-14.06,0h-2.71a2,2,0,0,0-.84.18,2.16,2.16,0,0,0-.68.52,2,2,0,0,0-.46,1.61l2.94,19.17h16.91l3.58-19.11a2.13,2.13,0,0,0,0-.87,1.9,1.9,0,0,0-.4-.77,1.93,1.93,0,0,0-.69-.54,2,2,0,0,0-.85-.19Z" transform="translate(-96.16 -218.93)"/><path class="cls-7" d="M242.92,415.52H124.33V517.38H242.92Z" transform="translate(-96.16 -218.93)"/><path class="cls-4" d="M159.52,538.63a8.69,8.69,0,1,0-8.67-8.69A8.69,8.69,0,0,0,159.52,538.63Z" transform="translate(-96.16 -218.93)"/><path class="cls-6" d="M163.86,529.21h-3.61v-3.62H158.8v3.62h-3.61v1.45h3.61v3.62h1.45v-3.62h3.61Z" transform="translate(-96.16 -218.93)"/><path class="cls-4" d="M205.32,538.63a8.69,8.69,0,1,0-8.68-8.69A8.69,8.69,0,0,0,205.32,538.63Z" transform="translate(-96.16 -218.93)"/><path class="cls-6" d="M209.66,530.66v-1.45H201v1.45Z" transform="translate(-96.16 -218.93)"/><path class="cls-6" d="M207,487.89H207a11.11,11.11,0,0,0,10.4-7A36.34,36.34,0,1,0,169,500.85a11,11,0,0,0,12.23-2.27A36.22,36.22,0,0,1,207,487.89Z" transform="translate(-96.16 -218.93)"/><path class="cls-9" d="M188.3,476.86a12,12,0,1,0-12-12A12,12,0,0,0,188.3,476.86Z" transform="translate(-96.16 -218.93)"/></svg>