<svg id="Calque_1" data-name="Calque 1" xmlns="http://www.w3.org/2000/svg" xmlns:xlink="http://www.w3.org/1999/xlink" viewBox="0 0 500 439"><defs><style>.cls-1{fill:none;}.cls-2{fill:#f6cfbb;}.cls-3{clip-path:url(#clip-path);}.cls-4{fill:#f2f2f2;}.cls-5{fill:#e6e6e6;}.cls-6{fill:#fff;}.cls-7{fill:#ccc;}.cls-8{fill:#f6a825;}.cls-9{fill:#9f616a;}.cls-10{fill:#3f3d56;}.cls-11{fill:#2f2e41;}.cls-12{fill:#f5b7b8;}</style><clipPath id="clip-path" transform="translate(-47.16 -201.93)"><rect class="cls-1" x="121.16" y="248.93" width="409" height="331"/></clipPath></defs><title>serrage_de_main</title><circle class="cls-2" cx="155" cy="155" r="155"/><circle class="cls-2" cx="345" cy="284" r="155"/><g class="cls-3"><path class="cls-4" d="M447.67,309.22A259,259,0,0,1,430,381c-11.74,29.39-27.78,55.28-46.38,74.86l-1-.9c18.51-19.49,34.48-45.26,46.17-74.53,10.56-26.44,16.85-54,18.18-79.58l1.32.22C448.12,303.75,447.92,306.47,447.67,309.22Z" transform="translate(-47.16 -201.93)"/><path class="cls-4" d="M456.13,444.88C430,486.36,398.3,516,366.86,528.34l-.63-1.17c31.22-12.25,62.73-41.73,88.75-83Z" transform="translate(-47.16 -201.93)"/><path class="cls-4" d="M447,338.3a259.34,259.34,0,0,1-17.67,71.75c-11.74,29.39-27.78,55.28-46.38,74.86l-1-.9c18.52-19.49,34.48-45.26,46.17-74.52,10.57-26.45,16.85-54,18.18-79.59l1.32.22C447.48,332.83,447.29,335.55,447,338.3Z" transform="translate(-47.16 -201.93)"/><path class="cls-5" d="M153.68,398.27H136.53a2.41,2.41,0,0,1-1.05-.24,2.44,2.44,0,0,1-.85-.68,2.29,2.29,0,0,1-.47-1,2.37,2.37,0,0,1,0-1.06,46.35,46.35,0,0,0-.3-21.81,2.55,2.55,0,0,1,.08-1.42,2.47,2.47,0,0,1,.87-1.13c8.81-6.32,15.76-6.14,20.63.55a2.46,2.46,0,0,1,.43,1,75.82,75.82,0,0,1,.21,23.63,2.41,2.41,0,0,1-.81,1.49A2.44,2.44,0,0,1,153.68,398.27Z" transform="translate(-47.16 -201.93)"/><path class="cls-6" d="M148.36,381.14h-5.89a1.23,1.23,0,0,1-.87-.36,1.24,1.24,0,0,1-.36-.87,1.23,1.23,0,0,1,1.23-1.23h5.89a1.23,1.23,0,0,1,1.23,1.23,1.24,1.24,0,0,1-.36.87A1.23,1.23,0,0,1,148.36,381.14Z" transform="translate(-47.16 -201.93)"/><path class="cls-6" d="M148.36,385.44h-5.89a1.22,1.22,0,0,1-.87-2.09,1.19,1.19,0,0,1,.87-.36h5.89a1.23,1.23,0,1,1,0,2.45Z" transform="translate(-47.16 -201.93)"/><path class="cls-6" d="M148.36,389.74h-5.89a1.23,1.23,0,1,1,0-2.45h5.89a1.23,1.23,0,1,1,0,2.45Z" transform="translate(-47.16 -201.93)"/><path class="cls-5" d="M465.28,474.65H448.13a2.46,2.46,0,0,1-1.9-.91,2.46,2.46,0,0,1-.47-1,2.37,2.37,0,0,1,0-1.06,46.31,46.31,0,0,0-.3-21.8,2.54,2.54,0,0,1,.08-1.42,2.42,2.42,0,0,1,.87-1.13c8.81-6.33,15.76-6.14,20.63.55a2.37,2.37,0,0,1,.43,1,75.82,75.82,0,0,1,.21,23.63,2.36,2.36,0,0,1-.81,1.49A2.32,2.32,0,0,1,465.28,474.65Z" transform="translate(-47.16 -201.93)"/><path class="cls-6" d="M460,457.52h-5.89a1.23,1.23,0,1,1,0-2.45H460a1.23,1.23,0,0,1,.87.36,1.22,1.22,0,0,1,0,1.73A1.23,1.23,0,0,1,460,457.52Z" transform="translate(-47.16 -201.93)"/><path class="cls-6" d="M460,461.83h-5.89a1.23,1.23,0,0,1-1.23-1.23,1.23,1.23,0,0,1,1.23-1.23H460a1.23,1.23,0,0,1,.87.36,1.19,1.19,0,0,1,.36.87,1.2,1.2,0,0,1-.36.87A1.23,1.23,0,0,1,460,461.83Z" transform="translate(-47.16 -201.93)"/><path class="cls-6" d="M460,466.13h-5.89a1.23,1.23,0,0,1-1.23-1.23,1.24,1.24,0,0,1,.36-.87,1.27,1.27,0,0,1,.87-.36H460a1.23,1.23,0,0,1,.87.36,1.2,1.2,0,0,1,.36.87,1.19,1.19,0,0,1-.36.87A1.23,1.23,0,0,1,460,466.13Z" transform="translate(-47.16 -201.93)"/><path class="cls-7" d="M530.16,579.29a.69.69,0,0,1,0,.24.64.64,0,0,1-.35.35.69.69,0,0,1-.24,0H121.8a.65.65,0,0,1-.64-.64.66.66,0,0,1,.19-.46.63.63,0,0,1,.45-.18H529.52a.51.51,0,0,1,.24,0,.77.77,0,0,1,.21.14.6.6,0,0,1,.14.21A.7.7,0,0,1,530.16,579.29Z" transform="translate(-47.16 -201.93)"/><path class="cls-4" d="M228.71,540.09l-1.07-14.84a48.17,48.17,0,0,0-22.59-5c11,8.49,10.14,25.47,17.76,37.09a28.94,28.94,0,0,0,21.58,12.76l9.17,5.27a48.34,48.34,0,0,0-11.29-38.92,47.26,47.26,0,0,0-8.83-7.75C231.44,534.39,228.71,540.09,228.71,540.09Z" transform="translate(-47.16 -201.93)"/><path class="cls-4" d="M422.6,542.24l1.07-14.84a48.2,48.2,0,0,1,22.59-5c-11,8.49-10.13,25.47-17.76,37.09a28.89,28.89,0,0,1-21.58,12.76l-9.16,5.27a48.25,48.25,0,0,1,11.29-38.92,46.48,46.48,0,0,1,8.82-7.74C419.87,536.55,422.6,542.24,422.6,542.24Z" transform="translate(-47.16 -201.93)"/><path class="cls-8" d="M320.81,374.77a10.22,10.22,0,1,0-10.25-10.22A10.24,10.24,0,0,0,320.81,374.77Z" transform="translate(-47.16 -201.93)"/><path class="cls-6" d="M326.06,360.29a.82.82,0,0,0-1.14,0,33.91,33.91,0,0,0-5.81,5.92c-.42-.8-.83-1.6-1.24-2.4s-1.88-.1-1.4.82c.6,1.17,1.21,2.34,1.82,3.51a.71.71,0,0,0,.29.28.86.86,0,0,0,.4.11.8.8,0,0,0,.4-.11.68.68,0,0,0,.3-.28,32.75,32.75,0,0,1,6.38-6.71.8.8,0,0,0,0-1.14Z" transform="translate(-47.16 -201.93)"/><path class="cls-9" d="M275,393.53l-15.44-24.2,17.88-9.56,4.7,18.46,33.08,17.84a7.14,7.14,0,0,1,7.6,1.8,7.14,7.14,0,0,1-5.05,12.05,7.18,7.18,0,0,1-6.63-4.14Z" transform="translate(-47.16 -201.93)"/><path class="cls-10" d="M248.24,340.3c-4.85,7.11,12.4,32.95,12.4,32.95.84-1.81,8.87,18.49,10.21,17.29,3.83-3.41,9.81-12.9,13.14-13.32,1.9-.24-4.41-13.71-4.41-13.71s-2.89-7.95-6.81-18.1a18.25,18.25,0,0,0-13.27-11.59S253.1,333.19,248.24,340.3Z" transform="translate(-47.16 -201.93)"/><path class="cls-9" d="M248.48,572h7.34l3.48-28.23H248.48Z" transform="translate(-47.16 -201.93)"/><path class="cls-11" d="M246.61,569.56h2.06l8.06-3.28,4.32,3.27h0a9.2,9.2,0,0,1,9.2,9.19v.3H246.61Z" transform="translate(-47.16 -201.93)"/><path class="cls-9" d="M282.56,572h7.34l3.49-28.23H282.56Z" transform="translate(-47.16 -201.93)"/><path class="cls-11" d="M280.69,569.56h2.06l8.06-3.28,4.32,3.27h0a9.2,9.2,0,0,1,9.2,9.19v.3H280.69Z" transform="translate(-47.16 -201.93)"/><path class="cls-11" d="M285.73,417.59,238,418.78c-9.06,4.91-9.2,15.54-6.23,28.17,0,0-1,7.5,1,9.5s3,2,2,5.5,4.29,9.22,3.65,9.86A25.29,25.29,0,0,0,236.3,476l5,28.5S244.82,554,245.82,555s2,0,1,2.5-2,1.5-1,2.5a37.61,37.61,0,0,1,2.51,3h12.12s.91-5,.91-5.5,1-3.5,1-4-.88-1.38-.88-1.38a15.82,15.82,0,0,1-.62-3.12c0-1-3-39.5-3-39.5l6-50,14.53,49s0,43,1,44,1,.5.5,2.5-2.5,1.5-1,3,2-1,1.5,1.5l-.5,2.5,15,.22s2-4.22,1-5.72-.94-1.09.28-3.54,1.73-3,1.22-3.46-.5-3.16-.5-3.16l-2.5-47.85s-.5-50.5-.5-52a4.91,4.91,0,0,1,.41-2.24v-2l-1.92-7.22Z" transform="translate(-47.16 -201.93)"/><path class="cls-9" d="M257.07,318.59a14.79,14.79,0,1,0-14.82-14.79A14.81,14.81,0,0,0,257.07,318.59Z" transform="translate(-47.16 -201.93)"/><path class="cls-10" d="M264.48,328.37c3.2,1.9,5.11,5.38,6.21,8.92a84.55,84.55,0,0,1,3.64,20.19L275.48,378l14.35,43.69c-12.43,10.49-59.17,2.38-59.17,2.38s-1.44-.47,0-1.91,2.83-.16,1.4-1.59-.45.16,0-1.27,0-.48-.48-.95,3.7-4.78,3.7-4.78l-3.82-25.07-4.79-50.58c5.74-7.16,17.28-11.38,17.28-11.38l3-5.36,14.91,1.19Z" transform="translate(-47.16 -201.93)"/><path class="cls-11" d="M269.29,295.94a6.82,6.82,0,0,1,2.44,3.42,48.46,48.46,0,0,0,0-6.71c-.18-1.57-1.29-1.92-2.57-2.33s-2.47-.79-2.82-2.32c-4.66-4.52-12.78-4.29-18.33-2.71-3.05.87-4.81,2-5,2.63l0,.14-.12.06c-2.36,1.18-2.82,4.89-2.79,7.79.06,5.47,2,11.69,3,12.2.06,0,.07,0,.1,0,1.6-1.28,3.56.1,4.42.85a15.42,15.42,0,0,1,13.81-13.05,23.62,23.62,0,0,0,3.33-.56,6.89,6.89,0,0,1,1.7-.22A4.86,4.86,0,0,1,269.29,295.94Z" transform="translate(-47.16 -201.93)"/><path class="cls-12" d="M361.33,429.38l28.51-28.9,7.52-23.11-12.09-4.88c-6,6-12.16,24.49-12.16,24.49L353.65,423l-.47.19a5.91,5.91,0,0,0-2.24,1.88,5.77,5.77,0,0,0-1,2.73,5.77,5.77,0,0,0,2.26,5.18,5.75,5.75,0,0,0,5.6.75,5.71,5.71,0,0,0,2.36-1.73A5.81,5.81,0,0,0,361.33,429.38Z" transform="translate(-47.16 -201.93)"/><path class="cls-8" d="M382,375.14l15.29,4.41h.06c5.62-1.09,10.06-10.41,12.8-18a10.53,10.53,0,0,0-5.72-13.21,10.62,10.62,0,0,0-11,1.68l-7.62,6.55Z" transform="translate(-47.16 -201.93)"/><path class="cls-12" d="M368.89,571.09h-8.23l-3.91-31.65h12.14Z" transform="translate(-47.16 -201.93)"/><path class="cls-11" d="M371,568.41h-2.31l-9-3.67-4.84,3.67h0a10.29,10.29,0,0,0-10.32,10.29V579H371Z" transform="translate(-47.16 -201.93)"/><path class="cls-12" d="M405.37,571.09h-8.22l-3.91-31.65h12.14Z" transform="translate(-47.16 -201.93)"/><path class="cls-11" d="M407.47,568.41h-2.31l-9-3.67-4.84,3.67h0A10.29,10.29,0,0,0,381,578.7V579h26.51Z" transform="translate(-47.16 -201.93)"/><path class="cls-11" d="M417.91,434.76a87,87,0,0,1-1.44,22.52c-2.4,11-2.4,42.05-2.4,42.05l-5.28,60.47L393,558.36l-4.32-101.08-15.37,34,1.44,4.79-1.91,1.2s1.43,9.34.47,9.34-3.36,1.44-3.36,1.44l1.92,49.34-16.32-.48-5.76-69.46L356,447.7l.48-7.67,2.16.09,1.1-3.2,2-5.51Z" transform="translate(-47.16 -201.93)"/><path class="cls-8" d="M418.74,437.18l.09-.12c4.57-6.39-2.3-21.73-3.34-23.95l4.36-1.41-1-8.34-.46-3.72,3.33-3.33v-.08l1.92-16.77,2.79-11.14a24.41,24.41,0,0,0-6.95-23.69l-6.45-6.07L405.21,327H392.56l-4.33,8.18A18.39,18.39,0,0,0,374,353.93l1,21.44-3.84,26.69v4.83l-4.33,4.81.95,4.71-3.3,1.41L363,424.6c-.61.79-4.58,6.08-4.58,7.53,0,.21.16.42.5.66,2.71,1.83,17.69,5.56,24.31,2.91,7.06-2.81,35.13,1.41,35.41,1.46Z" transform="translate(-47.16 -201.93)"/><path class="cls-12" d="M397.25,323.24a16.72,16.72,0,1,0-16.75-16.72A16.74,16.74,0,0,0,397.25,323.24Z" transform="translate(-47.16 -201.93)"/><path class="cls-11" d="M395.65,323.51a46.62,46.62,0,0,0,7.73-.74c2.53-.58,8.1-4.89,9.62-7.43a22.16,22.16,0,0,0,2.18-6.92,20.27,20.27,0,0,0-4-16,6.37,6.37,0,0,0-2.65-2.14l-.29-.09a8,8,0,0,1-4-2.34,8.5,8.5,0,0,0-.68-.66,9.75,9.75,0,0,0-4.13-1.93c-2.44-.59-5.93.14-10.38,2.18a11,11,0,0,1-6.62.37.58.58,0,0,0-.32,0,.61.61,0,0,0-.26.19,4.47,4.47,0,0,1-2.95,1.26c-.68.05-1.37,1-2.2,2.25-.19.28-.41.61-.57.81l0-.38-.37.44a5.3,5.3,0,0,0,2.63,8.59,9.82,9.82,0,0,0,2.09.28c.43,0,.87.06,1.3.12a8.05,8.05,0,0,1,3.72,1.72,7.93,7.93,0,0,1,2.38,3.33,2.11,2.11,0,0,0,.54.78,2.08,2.08,0,0,0,.83.47,2.13,2.13,0,0,0,1.83-.32,3.44,3.44,0,0,1,1.49-.71,3.29,3.29,0,0,1,1.65.06,2.29,2.29,0,0,1,1.05,1.12,3,3,0,0,0,1.18,1.3c1.74.84,2,4.76,1.43,8.05s-1.64,5.47-2.72,5.61c-.84.11-.94.17-1,.32l0,.14.09.12A3.45,3.45,0,0,0,395.65,323.51Z" transform="translate(-47.16 -201.93)"/><path class="cls-12" d="M381.75,376.92l-8.05-10.23c-8.2,2.25-22.76,15.19-22.76,15.19l-29.89,12.95a5.74,5.74,0,0,0-6.63,4.72,5.75,5.75,0,0,0,2,5.38,5.77,5.77,0,0,0,8.11-.79l39.15-10.9Z" transform="translate(-47.16 -201.93)"/><path class="cls-8" d="M379.82,379.27l12.71-14.14.7-10a10.54,10.54,0,0,0-19.29-6.53c-4.49,6.76-9.32,15.88-6.83,21l0,.05Z" transform="translate(-47.16 -201.93)"/><path class="cls-5" d="M262.71,432.39l-33-16.88c-2.35-1.2-3.12-4.38-1.73-7.1l21.53-42c1.39-2.71,4.44-3.94,6.78-2.74l33,16.87c2.35,1.21,3.12,4.39,1.73,7.1L269.5,429.64C268.11,432.35,265.06,433.59,262.71,432.39Z" transform="translate(-47.16 -201.93)"/><path class="cls-6" d="M257.07,424.63l-22.43-11.47c-2.2-1.12-2.93-4.1-1.63-6.65l17.89-34.85c1.3-2.54,4.15-3.69,6.35-2.57l27.1,13.85c2.2,1.13,2.93,4.11,1.63,6.65l-9.72,18.93C270.45,419.84,266.87,429.63,257.07,424.63Z" transform="translate(-47.16 -201.93)"/><path class="cls-8" d="M268.16,405.6l-19.87-10.16a1.24,1.24,0,0,1-.48-.72,1.23,1.23,0,0,1,1.6-1.46l19.88,10.15a1.24,1.24,0,0,1,.48.72,1.22,1.22,0,0,1-.1.86,1.25,1.25,0,0,1-.64.58A1.3,1.3,0,0,1,268.16,405.6Z" transform="translate(-47.16 -201.93)"/><path class="cls-8" d="M250.61,402.07l-4.53-2.31a1.24,1.24,0,0,1-.49-.72,1.23,1.23,0,0,1,.74-1.44,1.24,1.24,0,0,1,.87,0l4.53,2.32a1.24,1.24,0,0,1-.25,2.16A1.24,1.24,0,0,1,250.61,402.07Z" transform="translate(-47.16 -201.93)"/><path class="cls-8" d="M256.43,410.49l-12.57-6.42a1.24,1.24,0,0,1-.48-.72,1.24,1.24,0,0,1,.74-1.44,1.21,1.21,0,0,1,.86,0l12.57,6.42a1.24,1.24,0,0,1-.25,2.16,1.24,1.24,0,0,1-.87,0Z" transform="translate(-47.16 -201.93)"/><path class="cls-8" d="M276,390.27l-19.87-10.15a1.21,1.21,0,0,1-.49-.72,1.28,1.28,0,0,1,.1-.86,1.25,1.25,0,0,1,.64-.58,1.3,1.3,0,0,1,.87,0l19.87,10.16a1.25,1.25,0,0,1,.49.72,1.26,1.26,0,0,1-.74,1.44A1.24,1.24,0,0,1,276,390.27Z" transform="translate(-47.16 -201.93)"/><path class="cls-8" d="M258.48,386.75l-4.54-2.32a1.22,1.22,0,0,1-.48-.71,1.17,1.17,0,0,1,.1-.86,1.23,1.23,0,0,1,.64-.59,1.21,1.21,0,0,1,.86,0l4.54,2.32a1.24,1.24,0,0,1,.38,1.57,1.19,1.19,0,0,1-.64.59A1.21,1.21,0,0,1,258.48,386.75Z" transform="translate(-47.16 -201.93)"/><path class="cls-8" d="M264.29,395.17l-12.56-6.42a1.21,1.21,0,0,1-.49-.72,1.28,1.28,0,0,1,.1-.86,1.24,1.24,0,0,1,1.51-.6L265.41,393a1.19,1.19,0,0,1,.49.71,1.25,1.25,0,0,1-.74,1.45,1.24,1.24,0,0,1-.87,0Z" transform="translate(-47.16 -201.93)"/><path class="cls-9" d="M235.35,395.86l-7.46-27.71,19.94-3.76-1.08,19L273,410.32a7.14,7.14,0,1,1-5.15,11.76,7,7,0,0,1-1.65-3.72Z" transform="translate(-47.16 -201.93)"/><path class="cls-10" d="M225.85,337.08c-6.77,5.33,1.92,35.15,1.92,35.15,1.34-1.48,2.91,20.29,4.55,19.55,4.67-2.11,13.23-9.37,16.53-8.78,1.89.34-.09-14.4-.09-14.4s-.36-8.44-1-19.3a18.27,18.27,0,0,0-9.19-15S232.62,331.75,225.85,337.08Z" transform="translate(-47.16 -201.93)"/><path class="cls-5" d="M338.44,457.37l-18-8.49a2.85,2.85,0,0,1-1-.77,2.88,2.88,0,0,1-.57-2.37,2.78,2.78,0,0,1,.53-1.11,54.17,54.17,0,0,0,10.47-22.73,2.77,2.77,0,0,1,1-1.62,2.8,2.8,0,0,1,1.78-.63c9.19,0,16.06,3.38,20.42,10a2.75,2.75,0,0,1,.44,1.13,2.79,2.79,0,0,1-.07,1.22A88.79,88.79,0,0,1,342,456.38a2.85,2.85,0,0,1-1.6,1.16A2.75,2.75,0,0,1,338.44,457.37Z" transform="translate(-47.16 -201.93)"/><path class="cls-6" d="M343.75,445.47,330,439a1.41,1.41,0,0,1-.74-.81,1.38,1.38,0,0,1,.06-1.09,1.44,1.44,0,0,1,1.9-.68l13.78,6.5a1.31,1.31,0,0,1,.44.33,1.36,1.36,0,0,1,.29.47,1.5,1.5,0,0,1,.08.55,1.38,1.38,0,0,1-.13.54,1.35,1.35,0,0,1-.33.45,1.4,1.4,0,0,1-.48.29,1.5,1.5,0,0,1-.55.08,1.43,1.43,0,0,1-.54-.13Z" transform="translate(-47.16 -201.93)"/><path class="cls-6" d="M345.89,440.94l-13.78-6.49a1.41,1.41,0,0,1-.74-.81,1.38,1.38,0,0,1,.06-1.09,1.44,1.44,0,0,1,1.9-.68l13.78,6.49a1.45,1.45,0,0,1,.73.81,1.42,1.42,0,0,1,0,1.09,1.44,1.44,0,0,1-.81.74,1.47,1.47,0,0,1-1.09-.06Z" transform="translate(-47.16 -201.93)"/><path class="cls-4" d="M327.48,299l-1.29.14c-5.72-22.42-16.8-38-32.05-44.92-19.39-8.86-43.37-2.91-67.52,16.74s-45.75,51-60.49,87.87l-1.25-.57c14.81-37.07,36.4-68.42,60.81-88.29s49-26,68.89-16.87C310.27,260.23,321.65,276.1,327.48,299Z" transform="translate(-47.16 -201.93)"/><path class="cls-4" d="M186,328.16c-3.35,7-6.54,14.36-9.48,21.71-16.9,42.33-25.47,85.55-24.77,125l-1.32-.14c-.7-39.6,7.89-83,24.85-125.43,2.94-7.38,6.14-14.71,9.51-21.78Z" transform="translate(-47.16 -201.93)"/><path class="cls-4" d="M185.34,357.25C182,364.3,178.8,371.6,175.86,379c-16.91,42.32-25.48,85.55-24.78,125l-1.32-.14c-.7-39.6,7.89-83,24.85-125.43,2.95-7.38,6.15-14.7,9.51-21.77Z" transform="translate(-47.16 -201.93)"/><path class="cls-7" d="M149.83,367.82c1.46-2.19.59-5.32-1.93-7s-5.76-1.26-7.22.93-.6,5.32,1.93,7S148.37,370,149.83,367.82Z" transform="translate(-47.16 -201.93)"/><path class="cls-7" d="M460.86,446.94c1.46-2.2.59-5.33-1.93-7s-5.76-1.26-7.22.93-.6,5.33,1.93,7S459.4,449.13,460.86,446.94Z" transform="translate(-47.16 -201.93)"/></g></svg>