<svg xmlns="http://www.w3.org/2000/svg" viewBox="0 0 81.17 80.37"><defs><style>.cls-1{fill:none;stroke:#fff;stroke-miterlimit:10;stroke-width:1.83px;}.cls-2{fill:#fff;}</style></defs><title>Plan de travail 4 copie 2</title><g id="Calque_3" data-name="Calque 3"><path class="cls-1" d="M22.73,22.21c1.07-9.79,7.14-16.62,13.45-17,1.12-.07,4.27-.06,8,2.83"/><path class="cls-1" d="M26.66,21.64C27.08,14,32.25,8.79,37.1,8.79c3.62,0,6.29,2.89,7.06,3.79"/><path class="cls-1" d="M44.18,8a65.71,65.71,0,0,1,17.57,5.9c6.12,3.1,10.81,5.55,13.43,10.82.78,1.56,3.08,6.19,1.07,11A12,12,0,0,1,72,40.93S70.49,27.78,42.58,21.78A9.76,9.76,0,0,1,42.45,17c.44-1.86,1.25-2.56,1.71-4.45A9.89,9.89,0,0,0,44.18,8Z"/><path class="cls-1" d="M47.69,8.78a11.56,11.56,0,0,1-.28,5.15c-.48,1.66-1.12,2.31-1.54,4a10.29,10.29,0,0,0-.07,4.62"/><path class="cls-1" d="M27,61a13.93,13.93,0,0,1,.89-13.58c4.38-6.2,13.28-5,16.91-12.29A12.15,12.15,0,0,0,46,31.56c1-4.22-3.37-9.78-3.37-9.78s-3.41,1.62-5.4,8.56a6.07,6.07,0,0,0,.28,4.91c1.3,2.42,4.17,3,4.76,3.17"/><path class="cls-1" d="M34.11,30.61S36.9,29,36.87,31.9"/><path class="cls-2" d="M38.2,13a1.3,1.3,0,1,1-1.3-1.24A1.27,1.27,0,0,1,38.2,13Z"/><path class="cls-1" d="M8.57,61.68c-1-3.75-1.62-9.13,1.21-13.61C15.69,38.66,32,41,34.11,33.14a9.61,9.61,0,0,0-2.32-8.34c-.4-.45-2.94-3.17-6.47-3.14a5.37,5.37,0,0,0-2.11.35C12.46,26.42,5,36.47,5,48.17c0,11,6.61,20.51,16.31,25.29"/><path class="cls-1" d="M12.2,45.25a29.46,29.46,0,0,0,.24,9.9A30.11,30.11,0,0,0,18.19,67.7a17.79,17.79,0,0,1-4.12-1.54,17.61,17.61,0,0,1-5.5-4.48"/><path class="cls-1" d="M22.35,40.35a25.61,25.61,0,0,0,0,25.63,15.5,15.5,0,0,1-3.92-2.08,17.23,17.23,0,0,1-6.29-10.32"/><path class="cls-1" d="M19,52.05a13.78,13.78,0,0,0,10.76,12.7,13.27,13.27,0,0,1-4-8.49"/><path class="cls-1" d="M21.26,73.46a21.73,21.73,0,0,0,6.17,1.74A22.24,22.24,0,0,0,39.2,73.37a18.3,18.3,0,0,1-9.91-4.56,17.83,17.83,0,0,1-4.37-6.19"/><path class="cls-1" d="M56.14,69.94c-1-.55-2.47,1.1-5.66,3a32.81,32.81,0,0,1-6.82,3.17,19,19,0,0,0,7.92.38c2-.34,3.64-.65,4.59-2.08S57.12,70.47,56.14,69.94Z"/><path class="cls-1" d="M53.35,56.59c-1,.29-.87,2.32-1.66,5.64a30.26,30.26,0,0,1-2.33,6.46A17.24,17.24,0,0,0,54.7,63.8c1-1.5,1.92-2.78,1.61-4.32S54.33,56.3,53.35,56.59Z"/><path class="cls-1" d="M43.15,55.7c-.57.62.36,2,1.21,4.67a24.66,24.66,0,0,1,1.07,5.52,14,14,0,0,0,1.7-5.68c.11-1.5.19-2.77-.68-3.72S43.72,55.09,43.15,55.7Z"/></g></svg>